<svg width="30" height="30" viewBox="0 0 30 30" fill="none" xmlns="http://www.w3.org/2000/svg">
<path d="M5.93673 1.81108C6.14183 1.59173 6.24279 1.30907 6.21791 1.02377C6.19303 0.738472 6.04431 0.473287 5.80367 0.285142C5.56303 0.0969977 5.24966 0.000893268 4.93082 0.0174603C4.61199 0.0340273 4.31311 0.161945 4.09836 0.373752L1.99644 2.5312C0.804558 3.75507 0.130797 5.31543 0.0929926 6.93939L0.000260866 10.903C-0.00642697 11.1929 0.115711 11.4734 0.339805 11.6827C0.5639 11.8919 0.871594 12.0129 1.1952 12.0189C1.51881 12.0249 1.83181 11.9154 2.06537 11.7146C2.29892 11.5138 2.43388 11.2381 2.44057 10.9482L2.53168 6.98604C2.55778 5.87485 3.01905 4.80725 3.8348 3.96999L5.93673 1.81108Z" fill="#8D99AB"/>
<path fill-rule="evenodd" clip-rule="evenodd" d="M5.62429 9.51905C5.73355 7.95947 6.50202 6.49583 7.77327 5.42608C9.04451 4.35633 10.723 3.7609 12.4669 3.761H13.3731V2.6677C13.3731 2.28108 13.5445 1.9103 13.8496 1.63692C14.1547 1.36354 14.5685 1.20996 15 1.20996C15.4314 1.20996 15.8452 1.36354 16.1503 1.63692C16.4554 1.9103 16.6268 2.28108 16.6268 2.6677V3.761H17.533C19.277 3.7609 20.9554 4.35633 22.2267 5.42608C23.4979 6.49583 24.2664 7.95947 24.3756 9.51905L24.7352 14.6707C24.8722 16.6349 25.6083 18.5278 26.8631 20.143C27.1224 20.4769 27.2808 20.8653 27.323 21.2703C27.3651 21.6753 27.2896 22.0832 27.1037 22.4544C26.9178 22.8255 26.6279 23.1472 26.2622 23.3882C25.8965 23.6292 25.4674 23.7813 25.0166 23.8296L19.4739 24.4244V25.9915C19.4739 27.0547 19.0025 28.0743 18.1635 28.8261C17.3245 29.5779 16.1865 30.0002 15 30.0002C13.8134 30.0002 12.6755 29.5779 11.8364 28.8261C10.9974 28.0743 10.5261 27.0547 10.5261 25.9915V24.4244L4.9833 23.8282C4.53281 23.7797 4.10399 23.6276 3.73849 23.3866C3.37299 23.1457 3.08325 22.8242 2.89741 22.4533C2.71157 22.0824 2.63595 21.6748 2.67789 21.27C2.71984 20.8651 2.87793 20.4769 3.1368 20.143C4.39161 18.5278 5.12765 16.6349 5.26475 14.6707L5.62429 9.52051V9.51905ZM12.9664 25.9915C12.9664 26.4747 13.1806 26.9382 13.562 27.2799C13.9434 27.6217 14.4606 27.8136 15 27.8136C15.5393 27.8136 16.0566 27.6217 16.4379 27.2799C16.8193 26.9382 17.0336 26.4747 17.0336 25.9915V24.8982H12.9664V25.9915Z" fill="#8D99AB"/>
<path d="M24.1804 0.269373C23.9367 0.460007 23.7874 0.729568 23.7655 1.01878C23.7435 1.308 23.8506 1.5932 24.0633 1.81166L26.1652 3.96911C26.9807 4.80696 27.4414 5.87511 27.4667 6.98662L27.5594 10.9473C27.5627 11.0909 27.5976 11.2324 27.6619 11.364C27.7263 11.4955 27.819 11.6143 27.9346 11.7138C28.0503 11.8132 28.1866 11.8912 28.3359 11.9434C28.4852 11.9956 28.6446 12.021 28.8048 12.018C28.965 12.015 29.123 11.9838 29.2698 11.9261C29.4166 11.8684 29.5492 11.7854 29.6602 11.6818C29.7711 11.5782 29.8582 11.456 29.9165 11.3222C29.9748 11.1884 30.003 11.0457 29.9997 10.9021L29.907 6.93997C29.8692 5.31601 29.1954 3.75565 28.0036 2.53178L25.9016 0.37433C25.6889 0.155944 25.388 0.022207 25.0653 0.002525C24.7425 -0.017157 24.4242 0.0788275 24.1804 0.269373Z" fill="#8D99AB"/>
</svg>
