<svg width="30" height="30" viewBox="0 0 30 30" fill="none" xmlns="http://www.w3.org/2000/svg">
<g clip-path="url(#clip0_795_164)">
<path d="M16.875 2.50004C16.875 3.05504 16.6338 3.55379 16.25 3.89754V6.25004H22.5C23.4946 6.25004 24.4484 6.64513 25.1517 7.34839C25.8549 8.05165 26.25 9.00548 26.25 10V22.5C26.25 23.4946 25.8549 24.4484 25.1517 25.1517C24.4484 25.855 23.4946 26.25 22.5 26.25H7.5C6.50544 26.25 5.55161 25.855 4.84835 25.1517C4.14509 24.4484 3.75 23.4946 3.75 22.5V10C3.75 9.00548 4.14509 8.05165 4.84835 7.34839C5.55161 6.64513 6.50544 6.25004 7.5 6.25004H13.75V3.89754C13.5169 3.68903 13.3396 3.42552 13.2344 3.131C13.1291 2.83648 13.0992 2.52031 13.1474 2.21127C13.1955 1.90224 13.3202 1.61016 13.5101 1.36164C13.7 1.11312 13.949 0.916041 14.2346 0.788359C14.5201 0.660677 14.833 0.606445 15.1448 0.630601C15.4566 0.654758 15.7575 0.756535 16.0199 0.926666C16.2824 1.0968 16.4981 1.32988 16.6474 1.60468C16.7968 1.87948 16.875 2.18728 16.875 2.50004ZM7.5 8.75004C7.16848 8.75004 6.85054 8.88174 6.61612 9.11616C6.3817 9.35058 6.25 9.66852 6.25 10V22.5C6.25 22.8316 6.3817 23.1495 6.61612 23.3839C6.85054 23.6183 7.16848 23.75 7.5 23.75H22.5C22.8315 23.75 23.1495 23.6183 23.3839 23.3839C23.6183 23.1495 23.75 22.8316 23.75 22.5V10C23.75 9.66852 23.6183 9.35058 23.3839 9.11616C23.1495 8.88174 22.8315 8.75004 22.5 8.75004H7.5ZM2.5 12.5H0V20H2.5V12.5ZM27.5 12.5H30V20H27.5V12.5ZM11.25 18.125C11.7473 18.125 12.2242 17.9275 12.5758 17.5759C12.9275 17.2242 13.125 16.7473 13.125 16.25C13.125 15.7528 12.9275 15.2758 12.5758 14.9242C12.2242 14.5726 11.7473 14.375 11.25 14.375C10.7527 14.375 10.2758 14.5726 9.92417 14.9242C9.57254 15.2758 9.375 15.7528 9.375 16.25C9.375 16.7473 9.57254 17.2242 9.92417 17.5759C10.2758 17.9275 10.7527 18.125 11.25 18.125ZM18.75 18.125C19.2473 18.125 19.7242 17.9275 20.0758 17.5759C20.4275 17.2242 20.625 16.7473 20.625 16.25C20.625 15.7528 20.4275 15.2758 20.0758 14.9242C19.7242 14.5726 19.2473 14.375 18.75 14.375C18.2527 14.375 17.7758 14.5726 17.4242 14.9242C17.0725 15.2758 16.875 15.7528 16.875 16.25C16.875 16.7473 17.0725 17.2242 17.4242 17.5759C17.7758 17.9275 18.2527 18.125 18.75 18.125Z" fill="#8D99AB"/>
</g>
<defs>
<clipPath id="clip0_795_164">
<rect width="30" height="30" fill="white"/>
</clipPath>
</defs>
</svg>
