<svg width="28" height="29" viewBox="0 0 28 29" fill="none" xmlns="http://www.w3.org/2000/svg">
<path d="M24.7056 15.9137C24.7596 15.4606 24.7956 14.9893 24.7956 14.5C24.7956 14.0106 24.7596 13.5393 24.6876 13.0862L27.7291 10.6937C27.999 10.4762 28.071 10.0775 27.909 9.76935L25.0295 4.74874C24.8496 4.42249 24.4716 4.31374 24.1477 4.42249L20.5663 5.87248C19.8104 5.29248 19.0185 4.82124 18.1367 4.45874L17.5968 0.616248C17.5428 0.253749 17.2368 0 16.8769 0H11.1178C10.7579 0 10.4699 0.253749 10.4159 0.616248L9.87604 4.45874C8.99418 4.82124 8.18432 5.31061 7.44644 5.87248L3.86503 4.42249C3.54108 4.29561 3.16315 4.42249 2.98318 4.74874L0.103654 9.76935C-0.0763157 10.0956 -0.0043274 10.4762 0.283625 10.6937L3.32512 13.0862C3.25313 13.5393 3.19914 14.0287 3.19914 14.5C3.19914 14.9712 3.23514 15.4606 3.30712 15.9137L0.265627 18.3062C-0.00432783 18.5237 -0.0763157 18.9224 0.0856575 19.2306L2.96518 24.2512C3.14515 24.5774 3.52309 24.6862 3.84703 24.5774L7.42844 23.1274C8.18432 23.7074 8.97619 24.1787 9.85804 24.5412L10.398 28.3837C10.4699 28.7462 10.7579 28.9999 11.1178 28.9999H16.8769C17.2368 28.9999 17.5428 28.7462 17.5788 28.3837L18.1187 24.5412C19.0005 24.1787 19.8104 23.6893 20.5483 23.1274L24.1297 24.5774C24.4536 24.7043 24.8316 24.5774 25.0115 24.2512L27.8911 19.2306C28.071 18.9043 27.999 18.5237 27.7111 18.3062L24.7056 15.9137ZM13.9974 19.9374C11.0278 19.9374 8.59825 17.4906 8.59825 14.5C8.59825 11.5093 11.0278 9.06247 13.9974 9.06247C16.9669 9.06247 19.3965 11.5093 19.3965 14.5C19.3965 17.4906 16.9669 19.9374 13.9974 19.9374Z" fill="white"/>
</svg>
