<svg width="13" height="13" viewBox="0 0 13 13" fill="none" xmlns="http://www.w3.org/2000/svg">
<path d="M2.16664 2.16689H3.79164L4.87497 1.08356H8.12497L9.2083 2.16689H10.8333C11.1206 2.16689 11.3962 2.28103 11.5993 2.48419C11.8025 2.68735 11.9166 2.9629 11.9166 3.25022V9.75021C11.9166 10.0375 11.8025 10.3131 11.5993 10.5162C11.3962 10.7194 11.1206 10.8335 10.8333 10.8335H2.16664C1.87933 10.8335 1.60378 10.7194 1.40061 10.5162C1.19745 10.3131 1.08331 10.0375 1.08331 9.75021V3.25022C1.08331 2.9629 1.19745 2.68735 1.40061 2.48419C1.60378 2.28103 1.87933 2.16689 2.16664 2.16689ZM6.49997 3.79189C5.78168 3.79189 5.0928 4.07723 4.58489 4.58514C4.07698 5.09305 3.79164 5.78192 3.79164 6.50022C3.79164 7.21851 4.07698 7.90738 4.58489 8.41529C5.0928 8.92321 5.78168 9.20855 6.49997 9.20855C7.21827 9.20855 7.90714 8.92321 8.41505 8.41529C8.92296 7.90738 9.2083 7.21851 9.2083 6.50022C9.2083 5.78192 8.92296 5.09305 8.41505 4.58514C7.90714 4.07723 7.21827 3.79189 6.49997 3.79189ZM6.49997 4.87522C6.93095 4.87522 7.34427 5.04642 7.64902 5.35117C7.95377 5.65592 8.12497 6.06924 8.12497 6.50022C8.12497 6.93119 7.95377 7.34452 7.64902 7.64926C7.34427 7.95401 6.93095 8.12521 6.49997 8.12521C6.069 8.12521 5.65567 7.95401 5.35092 7.64926C5.04618 7.34452 4.87497 6.93119 4.87497 6.50022C4.87497 6.06924 5.04618 5.65592 5.35092 5.35117C5.65567 5.04642 6.069 4.87522 6.49997 4.87522Z" fill="white"/>
</svg>
