<svg width="25" height="25" viewBox="0 0 25 25" fill="none" xmlns="http://www.w3.org/2000/svg">
<path d="M12.323 8.25L15.6251 11.5417V11.375C15.6251 10.5462 15.2958 9.75134 14.7098 9.16529C14.1237 8.57924 13.3289 8.25 12.5001 8.25H12.323ZM7.84383 9.08333L9.45841 10.6979C9.40633 10.9167 9.37508 11.1354 9.37508 11.375C9.37508 12.2038 9.70432 12.9987 10.2904 13.5847C10.8764 14.1708 11.6713 14.5 12.5001 14.5C12.7292 14.5 12.9584 14.4688 13.1772 14.4167L14.7917 16.0312C14.0938 16.375 13.323 16.5833 12.5001 16.5833C11.1187 16.5833 9.79399 16.0346 8.81723 15.0578C7.84048 14.0811 7.29175 12.7563 7.29175 11.375C7.29175 10.5521 7.50008 9.78125 7.84383 9.08333ZM2.08341 3.32292L4.45841 5.69792L4.92716 6.16667C3.20841 7.52083 1.85425 9.29167 1.04175 11.375C2.84383 15.9479 7.29175 19.1875 12.5001 19.1875C14.1147 19.1875 15.6563 18.875 17.0626 18.3125L17.5105 18.75L20.5522 21.7917L21.8751 20.4687L3.40633 2M12.5001 6.16667C13.8814 6.16667 15.2062 6.7154 16.1829 7.69215C17.1597 8.6689 17.7084 9.99366 17.7084 11.375C17.7084 12.0417 17.573 12.6875 17.3334 13.2708L20.3855 16.3229C21.948 15.0208 23.198 13.3125 23.9584 11.375C22.1563 6.80208 17.7084 3.5625 12.5001 3.5625C11.0417 3.5625 9.64591 3.82292 8.33341 4.29167L10.5938 6.53125C11.1876 6.30208 11.823 6.16667 12.5001 6.16667Z" fill="#8E8E8E"/>
</svg>
