<svg width="25" height="26" viewBox="0 0 25 26" fill="none" xmlns="http://www.w3.org/2000/svg">
<path d="M17.517 6.5H21.325M3.04649 6.5H14.4706M17.517 19.5H21.325M3.04649 19.5H14.4706M9.90094 13H21.325M3.04649 13H6.85452" stroke="white" stroke-width="1.5" stroke-linecap="round" stroke-linejoin="round"/>
<path d="M15.9938 8.12489C16.835 8.12489 17.517 7.39735 17.517 6.49988C17.517 5.60242 16.835 4.87488 15.9938 4.87488C15.1526 4.87488 14.4706 5.60242 14.4706 6.49988C14.4706 7.39735 15.1526 8.12489 15.9938 8.12489Z" stroke="white" stroke-width="1.5" stroke-linecap="round" stroke-linejoin="round"/>
<path d="M8.37757 14.6249C9.21882 14.6249 9.90078 13.8973 9.90078 12.9999C9.90078 12.1024 9.21882 11.3749 8.37757 11.3749C7.53633 11.3749 6.85436 12.1024 6.85436 12.9999C6.85436 13.8973 7.53633 14.6249 8.37757 14.6249Z" stroke="white" stroke-width="1.5" stroke-linecap="round" stroke-linejoin="round"/>
<path d="M15.9938 21.1249C16.835 21.1249 17.517 20.3973 17.517 19.4999C17.517 18.6024 16.835 17.8749 15.9938 17.8749C15.1526 17.8749 14.4706 18.6024 14.4706 19.4999C14.4706 20.3973 15.1526 21.1249 15.9938 21.1249Z" stroke="white" stroke-width="1.5" stroke-linecap="round" stroke-linejoin="round"/>
</svg>
