<svg width="22" height="22" viewBox="0 0 22 22" fill="none" xmlns="http://www.w3.org/2000/svg">
<path d="M17.4167 5.5H14.6667V4.58333C14.6667 4.0971 14.4736 3.63079 14.1297 3.28697C13.7859 2.94315 13.3196 2.75 12.8334 2.75H9.16671C8.68048 2.75 8.21416 2.94315 7.87035 3.28697C7.52653 3.63079 7.33337 4.0971 7.33337 4.58333V5.5H4.58337C3.85403 5.5 3.15456 5.78973 2.63883 6.30546C2.12311 6.82118 1.83337 7.52065 1.83337 8.25V16.5C1.83337 17.2293 2.12311 17.9288 2.63883 18.4445C3.15456 18.9603 3.85403 19.25 4.58337 19.25H17.4167C18.1461 19.25 18.8455 18.9603 19.3612 18.4445C19.877 17.9288 20.1667 17.2293 20.1667 16.5V8.25C20.1667 7.52065 19.877 6.82118 19.3612 6.30546C18.8455 5.78973 18.1461 5.5 17.4167 5.5ZM9.16671 4.58333H12.8334V5.5H9.16671V4.58333ZM18.3334 16.5C18.3334 16.7431 18.2368 16.9763 18.0649 17.1482C17.893 17.3201 17.6598 17.4167 17.4167 17.4167H4.58337C4.34026 17.4167 4.1071 17.3201 3.93519 17.1482C3.76328 16.9763 3.66671 16.7431 3.66671 16.5V11.3575L7.95671 12.8333C8.05404 12.8465 8.15271 12.8465 8.25004 12.8333H13.75C13.8495 12.8315 13.9481 12.8161 14.0434 12.7875L18.3334 11.3575V16.5ZM18.3334 9.42333L13.6034 11H8.39671L3.66671 9.42333V8.25C3.66671 8.00689 3.76328 7.77373 3.93519 7.60182C4.1071 7.42991 4.34026 7.33333 4.58337 7.33333H17.4167C17.6598 7.33333 17.893 7.42991 18.0649 7.60182C18.2368 7.77373 18.3334 8.00689 18.3334 8.25V9.42333Z" fill="white"/>
</svg>
