<svg width="30" height="30" viewBox="0 0 30 30" fill="none" xmlns="http://www.w3.org/2000/svg">
<path d="M12.6688 26.25L12.2163 22.635C11.8171 22.5142 11.3858 22.325 10.9225 22.0675C10.4583 21.8092 10.0633 21.5325 9.73751 21.2375L6.40376 22.6562L4.07251 18.5938L6.95376 16.4213C6.91709 16.1946 6.88668 15.9612 6.86251 15.7212C6.83918 15.4821 6.82751 15.2496 6.82751 15.0238C6.82751 14.8138 6.83918 14.5929 6.86251 14.3612C6.88584 14.1296 6.91626 13.8687 6.95376 13.5787L4.07251 11.4062L6.40376 7.39125L9.71376 8.7875C10.0871 8.47667 10.4913 8.19625 10.9263 7.94625C11.3596 7.69625 11.7817 7.50292 12.1925 7.36625L12.6675 3.75H17.3313L17.7838 7.39C18.2629 7.5575 18.6863 7.75042 19.0538 7.96875C19.4221 8.18708 19.8008 8.45958 20.19 8.78625L23.5963 7.39125L25.9275 11.4062L22.95 13.6512C23.0183 13.9096 23.0567 14.1463 23.065 14.3612C23.0733 14.5779 23.0775 14.7908 23.0775 15C23.0775 15.1942 23.0692 15.3988 23.0525 15.6138C23.0367 15.8296 23 16.0904 22.9425 16.3962L25.8725 18.5938L23.5413 22.6562L20.19 21.2138C19.8008 21.5404 19.4092 21.8208 19.015 22.055C18.62 22.2892 18.2096 22.4742 17.7838 22.61L17.3313 26.25H12.6688ZM14.9663 18.125C15.8379 18.125 16.5767 17.8221 17.1825 17.2162C17.7883 16.6104 18.0913 15.8717 18.0913 15C18.0913 14.1283 17.7883 13.3896 17.1825 12.7838C16.5767 12.1779 15.8379 11.875 14.9663 11.875C14.0896 11.875 13.3496 12.1779 12.7463 12.7838C12.1429 13.3896 11.8413 14.1283 11.8413 15C11.8413 15.8717 12.1429 16.6104 12.7463 17.2162C13.3496 17.8221 14.0896 18.125 14.9663 18.125Z" fill="white"/>
</svg>
