<svg width="37" height="37" viewBox="0 0 37 37" fill="none" xmlns="http://www.w3.org/2000/svg">
<path d="M32.086 18.4999C32.086 18.7298 31.9946 18.9504 31.832 19.113C31.6693 19.2757 31.4488 19.367 31.2188 19.367H7.87554L16.8003 28.2933C16.8855 28.3727 16.9539 28.4684 17.0013 28.5748C17.0487 28.6812 17.0742 28.796 17.0762 28.9124C17.0783 29.0289 17.0568 29.1445 17.0132 29.2525C16.9696 29.3605 16.9047 29.4586 16.8224 29.5409C16.74 29.6233 16.6419 29.6882 16.5339 29.7318C16.426 29.7754 16.3103 29.7968 16.1939 29.7948C16.0774 29.7927 15.9626 29.7672 15.8562 29.7199C15.7498 29.6725 15.6541 29.6041 15.5747 29.5189L5.16847 19.1127C5.00607 18.9501 4.91486 18.7297 4.91486 18.4999C4.91486 18.27 5.00607 18.0496 5.16847 17.887L15.5747 7.48079C15.7391 7.32761 15.9565 7.24422 16.1812 7.24818C16.4059 7.25215 16.6202 7.34316 16.7791 7.50204C16.938 7.66092 17.029 7.87528 17.033 8.09994C17.0369 8.3246 16.9535 8.54203 16.8003 8.70642L7.87554 17.6327H31.2188C31.4488 17.6327 31.6693 17.724 31.832 17.8867C31.9946 18.0493 32.086 18.2699 32.086 18.4999Z" fill="#F8F8F8"/>
</svg>
