<svg width="22" height="22" viewBox="0 0 22 22" fill="none" xmlns="http://www.w3.org/2000/svg">
<path d="M17.2146 15.9443L12.3834 20.8063C12.193 20.998 11.967 21.15 11.7182 21.2538C11.4694 21.3575 11.2027 21.4109 10.9334 21.4109C10.664 21.4109 10.3974 21.3575 10.1486 21.2538C9.89976 21.15 9.67371 20.998 9.48334 20.8063L4.65217 15.9443C3.82722 15.1144 3.17282 14.1292 2.72632 13.0449C2.27983 11.9605 2.04999 10.7983 2.04993 9.62462C2.04986 8.45092 2.27958 7.28869 2.72595 6.20431C3.17233 5.11992 3.82663 4.13461 4.65148 3.30463C5.47634 2.47465 6.45561 1.81626 7.53338 1.36704C8.61114 0.917829 9.7663 0.686587 10.9329 0.686523C12.0995 0.68646 13.2547 0.917574 14.3325 1.36667C15.4103 1.81577 16.3896 2.47406 17.2146 3.30394C18.0396 4.13388 18.694 5.1192 19.1405 6.20362C19.587 7.28805 19.8169 8.45034 19.8169 9.62413C19.8169 10.7979 19.587 11.9602 19.1405 13.0446C18.694 14.1291 18.0396 15.1144 17.2146 15.9443ZM15.7659 4.76282C14.4842 3.47334 12.7459 2.74754 10.9334 2.74754C9.12082 2.74754 7.3825 3.47196 6.10084 4.76145C4.81917 6.05093 4.09913 7.79984 4.09913 9.62345C4.09913 11.447 4.81917 13.196 6.10084 14.4854L10.9334 19.3461L15.7659 14.4868C16.4006 13.8484 16.9041 13.0904 17.2476 12.2562C17.5912 11.422 17.768 10.5278 17.768 9.62482C17.768 8.72183 17.5912 7.82768 17.2476 6.99345C16.9041 6.15922 16.4006 5.40125 15.7659 4.76282ZM10.9334 12.3748C10.5694 12.3831 10.2074 12.3181 9.8687 12.1837C9.53 12.0493 9.22141 11.8482 8.96103 11.5922C8.70066 11.3361 8.49375 11.0303 8.35245 10.6927C8.21116 10.3551 8.13833 9.99252 8.13824 9.62621C8.13815 9.2599 8.2108 8.89726 8.35192 8.55959C8.49305 8.22192 8.69981 7.91602 8.96005 7.65984C9.2203 7.40367 9.5288 7.20239 9.86743 7.06782C10.2061 6.93325 10.568 6.8681 10.932 6.87619C11.6462 6.89208 12.3258 7.18863 12.8253 7.70235C13.3249 8.21607 13.6047 8.90614 13.6049 9.62484C13.6051 10.3435 13.3256 11.0337 12.8263 11.5477C12.327 12.0617 11.6475 12.3586 10.9334 12.3748Z" fill="#272727"/>
</svg>
