<svg width="35" height="35" viewBox="0 0 35 35" fill="none" xmlns="http://www.w3.org/2000/svg">
<g clip-path="url(#clip0_999_578)">
<path d="M17.4999 15.1442C20.3753 15.1442 22.7062 12.773 22.7062 9.84797C22.7062 6.92295 20.3753 4.55176 17.4999 4.55176C14.6246 4.55176 12.2937 6.92295 12.2937 9.84797C12.2937 12.773 14.6246 15.1442 17.4999 15.1442Z" fill="white"/>
<path d="M9.60314 10.3782H10.1281V9.89369C10.1313 8.48467 10.5172 7.10468 11.242 5.90983C11.9668 4.71498 13.0018 3.75295 14.2297 3.13256C13.8662 2.27003 13.2827 1.52503 12.5412 0.976706C11.7997 0.428381 10.9279 0.0972014 10.0184 0.0183415C9.10893 -0.0605183 8.19568 0.115886 7.37568 0.528819C6.55568 0.941753 5.85954 1.57579 5.3612 2.3636C4.86287 3.15141 4.58095 4.06357 4.54538 5.0032C4.50981 5.94282 4.72193 6.87483 5.1592 7.70023C5.59647 8.52563 6.24257 9.2136 7.02887 9.69107C7.81517 10.1685 8.71231 10.4177 9.62501 10.412L9.60314 10.3782ZM24.8937 9.84861V10.3332H25.4187C26.3193 10.3238 27.2007 10.0646 27.9703 9.58267C28.7399 9.10075 29.3692 8.41399 29.7918 7.59468C30.2145 6.77538 30.415 5.85382 30.3722 4.92703C30.3293 4.00023 30.0448 3.10246 29.5485 2.32823C29.0522 1.55399 28.3625 0.931924 27.5519 0.527498C26.7414 0.123073 25.84 -0.0487511 24.9427 0.0301127C24.0454 0.108976 23.1853 0.435611 22.4529 0.975635C21.7206 1.51566 21.1431 2.2491 20.7812 3.09876C22.0096 3.71672 23.0456 4.67631 23.7724 5.8691C24.4991 7.06189 24.8875 8.44032 24.8937 9.84861ZM22.1922 15.6744C24.3668 16.1179 26.4695 16.8767 28.4375 17.9282C28.7147 18.0851 28.9658 18.2867 29.1812 18.5254H35V14.6715C35.001 14.5237 34.9629 14.3784 34.8896 14.2513C34.8164 14.1242 34.7108 14.0202 34.5844 13.9504C31.7495 12.4227 28.596 11.6298 25.3969 11.6403H24.675C24.2959 13.2277 23.4242 14.6442 22.1922 15.6744ZM4.9547 20.7115C4.95271 20.144 5.10147 19.5867 5.38488 19.1001C5.66828 18.6134 6.07553 18.2159 6.56251 17.9507C8.53048 16.8992 10.6332 16.1405 12.8078 15.697C11.5818 14.6755 10.7106 13.2718 10.325 11.6967H9.60314C6.40395 11.6862 3.25048 12.4791 0.415646 14.0067C0.289174 14.0765 0.183614 14.1806 0.110364 14.3077C0.037115 14.4348 -0.00103941 14.5801 2.15378e-05 14.7279V21.9285H4.9547V20.7115ZM21.2844 27.2134H27.8031V28.791H21.2844V27.2134Z" fill="white"/>
<path d="M33.6986 21.0946H26.1845V19.9678C26.1845 19.6689 26.0693 19.3823 25.8642 19.171C25.659 18.9596 25.3809 18.8409 25.0908 18.8409C24.8007 18.8409 24.5225 18.9596 24.3174 19.171C24.1123 19.3823 23.997 19.6689 23.997 19.9678V21.0946H21.8752V17.9056C20.4361 17.5943 18.9705 17.432 17.5002 17.4211C14.048 17.4063 10.6452 18.2653 7.59079 19.9227C7.45474 19.9954 7.34086 20.1055 7.26172 20.2407C7.18258 20.3759 7.14127 20.5311 7.14235 20.689V27.0106H14.9189V33.8732C14.9189 34.172 15.0341 34.4586 15.2393 34.67C15.4444 34.8813 15.7226 35 16.0127 35H33.6986C33.9887 35 34.2669 34.8813 34.472 34.67C34.6771 34.4586 34.7923 34.172 34.7923 33.8732V22.2215C34.7923 21.9226 34.6771 21.636 34.472 21.4247C34.2669 21.2134 33.9887 21.0946 33.6986 21.0946ZM32.6048 32.7688H17.1064V23.3483H23.997V24.3738C23.997 24.6726 24.1123 24.9593 24.3174 25.1706C24.5225 25.3819 24.8007 25.5006 25.0908 25.5006C25.3809 25.5006 25.659 25.3819 25.8642 25.1706C26.0693 24.9593 26.1845 24.6726 26.1845 24.3738V23.3483H32.6048V32.7688Z" fill="white"/>
</g>
<defs>
<clipPath id="clip0_999_578">
<rect width="35" height="35" fill="white"/>
</clipPath>
</defs>
</svg>
