<svg width="30" height="30" viewBox="0 0 30 30" fill="none" xmlns="http://www.w3.org/2000/svg">
<path d="M14.375 27.5C12.4583 27.5 10.8333 26.8333 9.5 25.5C8.16667 24.1667 7.5 22.5417 7.5 20.625V7.5C7.5 6.125 7.98958 4.94792 8.96875 3.96875C9.94792 2.98958 11.125 2.5 12.5 2.5C13.875 2.5 15.0521 2.98958 16.0312 3.96875C17.0104 4.94792 17.5 6.125 17.5 7.5V17.5H15.625V7.5C15.625 6.625 15.3229 5.88542 14.7187 5.28125C14.1146 4.67708 13.375 4.375 12.5 4.375C11.625 4.375 10.8854 4.67708 10.2813 5.28125C9.67708 5.88542 9.375 6.625 9.375 7.5V20.625C9.375 22 9.86458 23.1771 10.8438 24.1562C11.8229 25.1354 13 25.625 14.375 25.625C14.9792 25.625 15.5471 25.5258 16.0787 25.3275C16.6104 25.1292 17.0842 24.8533 17.5 24.5V26.75C17.0208 26.9792 16.5208 27.1617 16 27.2975C15.4792 27.4333 14.9375 27.5008 14.375 27.5ZM20 26.25V22.5H16.25V20H20V16.25H22.5V20H26.25V22.5H22.5V26.25H20ZM14.375 20.625V22.5C13.5 22.5 12.7604 22.1979 12.1563 21.5938C11.5521 20.9896 11.25 20.25 11.25 19.375V7.5H13.125V19.375C13.125 19.7292 13.245 20.0262 13.485 20.2662C13.725 20.5062 14.0217 20.6258 14.375 20.625ZM19.375 13.75V7.5H21.25V13.75H19.375Z" fill="#272727" fill-opacity="0.5"/>
</svg>
