<svg width="30" height="30" viewBox="0 0 30 30" fill="none" xmlns="http://www.w3.org/2000/svg">
<path d="M11.25 26.25H18.75M22.5 12.1875V14.0625C22.5 18.1875 19.125 21.5625 15 21.5625M15 21.5625C10.875 21.5625 7.5 18.1875 7.5 14.0625V12.1875M15 21.5625V26.25" stroke="#272727" stroke-opacity="0.5" stroke-linecap="round" stroke-linejoin="round"/>
<path d="M15 3.75005C14.5069 3.74756 14.0181 3.84286 13.562 4.03044C13.106 4.21801 12.6916 4.49414 12.3429 4.84286C11.9941 5.19157 11.718 5.60596 11.5304 6.06205C11.3429 6.51814 11.2476 7.0069 11.25 7.50005V14.004C11.25 16.0665 12.9493 17.8125 15 17.8125C17.0508 17.8125 18.75 16.1133 18.75 14.004V7.50005C18.75 5.39067 17.1094 3.75005 15 3.75005Z" stroke="#272727" stroke-opacity="0.5" stroke-linecap="round" stroke-linejoin="round"/>
</svg>
