<svg width="66" height="13" viewBox="0 0 66 13" fill="none" xmlns="http://www.w3.org/2000/svg">
<path d="M62.095 12.447C61.2145 12.447 60.4541 12.264 59.8137 11.8981C59.1771 11.5284 58.6873 11.0062 58.3443 10.3315C58.0012 9.65303 57.8297 8.85449 57.8297 7.93587C57.8297 7.0325 58.0012 6.23967 58.3443 5.55738C58.6912 4.87128 59.1752 4.33765 59.7965 3.95648C60.4179 3.5715 61.1478 3.37901 61.9864 3.37901C62.5276 3.37901 63.0384 3.46668 63.5186 3.64201C64.0027 3.81354 64.4296 4.08036 64.7994 4.44247C65.1729 4.80458 65.4664 5.26579 65.6799 5.82611C65.8933 6.38261 66.0001 7.04584 66.0001 7.8158V8.45045H58.8017V7.05537H64.0161C64.0123 6.65896 63.9265 6.30638 63.7588 5.99763C63.5911 5.68508 63.3567 5.43922 63.0555 5.26007C62.7582 5.08092 62.4114 4.99135 62.0149 4.99135C61.5918 4.99135 61.2202 5.09426 60.9 5.3001C60.5798 5.50211 60.3302 5.76893 60.151 6.10055C59.9757 6.42835 59.8861 6.78856 59.8823 7.18116V8.39899C59.8823 8.90975 59.9757 9.3481 60.1625 9.71402C60.3492 10.0761 60.6103 10.3544 60.9458 10.5488C61.2812 10.7394 61.6738 10.8347 62.1236 10.8347C62.4247 10.8347 62.6972 10.7927 62.9412 10.7089C63.1851 10.6212 63.3967 10.4935 63.5758 10.3258C63.755 10.1581 63.8903 9.95034 63.9818 9.70258L65.9143 9.91985C65.7923 10.4306 65.5598 10.8766 65.2168 11.2577C64.8775 11.6351 64.443 11.9286 63.9132 12.1382C63.3833 12.3441 62.7773 12.447 62.095 12.447Z" fill="white"/>
<path d="M54.5078 8.58208V3.49349H56.5776V12.2756H54.5707V10.7147H54.4792C54.281 11.2064 53.9551 11.6086 53.5015 11.9211C53.0518 12.2337 52.4972 12.39 51.8377 12.39C51.2622 12.39 50.7533 12.2623 50.3112 12.0069C49.8728 11.7477 49.5298 11.3722 49.282 10.8805C49.0343 10.385 48.9104 9.78658 48.9104 9.08523V3.49349H50.9801V8.76505C50.9801 9.32155 51.1326 9.76371 51.4375 10.0915C51.7425 10.4193 52.1427 10.5832 52.6382 10.5832C52.9431 10.5832 53.2385 10.5089 53.5244 10.3602C53.8103 10.2116 54.0447 9.9905 54.2277 9.697C54.4144 9.39969 54.5078 9.02805 54.5078 8.58208Z" fill="white"/>
<path d="M41.6678 7.1297V12.2755H39.5981V3.49336H41.5763V4.98563H41.6793C41.8813 4.49393 42.2034 4.10323 42.6455 3.81354C43.0915 3.52385 43.6423 3.37901 44.2979 3.37901C44.9039 3.37901 45.4319 3.50861 45.8816 3.7678C46.3352 4.02699 46.6859 4.40244 46.9337 4.89415C47.1852 5.38586 47.3091 5.98239 47.3053 6.68373V12.2755H45.2356V7.00392C45.2356 6.41692 45.0831 5.95761 44.7782 5.62599C44.477 5.29438 44.0597 5.12857 43.526 5.12857C43.1639 5.12857 42.8418 5.20862 42.5598 5.36871C42.2815 5.52498 42.0623 5.75178 41.9022 6.04909C41.746 6.3464 41.6678 6.7066 41.6678 7.1297Z" fill="white"/>
<path d="M35.8989 12.2755V3.4934H37.9686V12.2755H35.8989ZM36.9395 2.24699C36.6117 2.24699 36.3296 2.13835 36.0933 1.92109C35.8569 1.70001 35.7388 1.4351 35.7388 1.12635C35.7388 0.813793 35.8569 0.548882 36.0933 0.331616C36.3296 0.110539 36.6117 0 36.9395 0C37.2711 0 37.5531 0.110539 37.7857 0.331616C38.022 0.548882 38.1401 0.813793 38.1401 1.12635C38.1401 1.4351 38.022 1.70001 37.7857 1.92109C37.5531 2.13835 37.2711 2.24699 36.9395 2.24699Z" fill="white"/>
<path d="M34.6667 3.49358V5.09449H29.6182V3.49358H34.6667ZM30.8646 1.38954H32.9343V9.6342C32.9343 9.91245 32.9763 10.1259 33.0601 10.2746C33.1478 10.4194 33.2621 10.5185 33.4032 10.5719C33.5442 10.6252 33.7005 10.6519 33.872 10.6519C34.0016 10.6519 34.1198 10.6424 34.2265 10.6233C34.337 10.6043 34.4209 10.5871 34.4781 10.5719L34.8268 12.1899C34.7163 12.228 34.5581 12.27 34.3523 12.3157C34.1503 12.3615 33.9025 12.3881 33.609 12.3958C33.0906 12.411 32.6237 12.3329 32.2082 12.1613C31.7927 11.986 31.463 11.7154 31.2191 11.3495C30.9789 10.9835 30.8608 10.5261 30.8646 9.97725V1.38954Z" fill="white"/>
<path d="M23.0387 7.1297V12.2755H20.9689V3.49336H22.9472V4.98563H23.0501C23.2521 4.49393 23.5742 4.10323 24.0164 3.81354C24.4623 3.52385 25.0131 3.37901 25.6687 3.37901C26.2748 3.37901 26.8027 3.50861 27.2525 3.7678C27.7061 4.02699 28.0568 4.40244 28.3045 4.89415C28.5561 5.38586 28.68 5.98239 28.6762 6.68373V12.2755H26.6064V7.00392C26.6064 6.41692 26.454 5.95761 26.149 5.62599C25.8479 5.29438 25.4305 5.12857 24.8969 5.12857C24.5348 5.12857 24.2127 5.20862 23.9306 5.36871C23.6524 5.52498 23.4332 5.75178 23.2731 6.04909C23.1168 6.3464 23.0387 6.7066 23.0387 7.1297Z" fill="white"/>
<path d="M15.503 12.447C14.6454 12.447 13.9021 12.2583 13.2732 11.881C12.6442 11.5036 12.1563 10.9757 11.8095 10.2972C11.4664 9.61873 11.2949 8.8259 11.2949 7.91872C11.2949 7.01154 11.4664 6.2168 11.8095 5.53451C12.1563 4.85222 12.6442 4.3224 13.2732 3.94504C13.9021 3.56769 14.6454 3.37901 15.503 3.37901C16.3606 3.37901 17.1039 3.56769 17.7328 3.94504C18.3617 4.3224 18.8477 4.85222 19.1908 5.53451C19.5376 6.2168 19.7111 7.01154 19.7111 7.91872C19.7111 8.8259 19.5376 9.61873 19.1908 10.2972C18.8477 10.9757 18.3617 11.5036 17.7328 11.881C17.1039 12.2583 16.3606 12.447 15.503 12.447ZM15.5144 10.7889C15.9794 10.7889 16.3682 10.6612 16.6808 10.4058C16.9934 10.1466 17.2259 9.79978 17.3783 9.36525C17.5346 8.93072 17.6128 8.44664 17.6128 7.913C17.6128 7.37555 17.5346 6.88957 17.3783 6.45503C17.2259 6.01669 16.9934 5.66792 16.6808 5.40873C16.3682 5.14953 15.9794 5.01994 15.5144 5.01994C15.038 5.01994 14.6415 5.14953 14.3252 5.40873C14.0126 5.66792 13.7782 6.01669 13.6219 6.45503C13.4695 6.88957 13.3932 7.37555 13.3932 7.913C13.3932 8.44664 13.4695 8.93072 13.6219 9.36525C13.7782 9.79978 14.0126 10.1466 14.3252 10.4058C14.6415 10.6612 15.038 10.7889 15.5144 10.7889Z" fill="white"/>
<path d="M10.3201 4.51675H8.18177C8.12078 4.16608 8.00834 3.85542 7.84444 3.5848C7.68053 3.31035 7.47661 3.07784 7.23266 2.88726C6.98871 2.69667 6.71046 2.55374 6.3979 2.45844C6.08916 2.35934 5.75564 2.30979 5.39734 2.30979C4.76079 2.30979 4.19666 2.46988 3.70495 2.79006C3.21325 3.10643 2.82827 3.57145 2.55001 4.18513C2.27176 4.795 2.13263 5.54019 2.13263 6.42068C2.13263 7.31643 2.27176 8.07114 2.55001 8.68482C2.83208 9.29469 3.21706 9.7559 3.70495 10.0685C4.19666 10.3772 4.75888 10.5316 5.39162 10.5316C5.7423 10.5316 6.0701 10.4858 6.37503 10.3944C6.68378 10.2991 6.96013 10.1599 7.20407 9.97698C7.45183 9.79402 7.65957 9.56913 7.82728 9.30231C7.99881 9.0355 8.11697 8.73056 8.18177 8.38751L10.3201 8.39895C10.2401 8.95545 10.0666 9.47765 9.79983 9.96555C9.53682 10.4534 9.19186 10.8842 8.76496 11.2577C8.33805 11.6274 7.83872 11.9171 7.26697 12.1268C6.69521 12.3326 6.06057 12.4355 5.36303 12.4355C4.33388 12.4355 3.41526 12.1973 2.60719 11.7208C1.79911 11.2444 1.16256 10.5564 0.697537 9.6568C0.232512 8.75725 0 7.67854 0 6.42068C0 5.15902 0.234418 4.08031 0.703255 3.18457C1.17209 2.28501 1.81055 1.597 2.61862 1.12054C3.4267 0.644084 4.3415 0.405855 5.36303 0.405855C6.01483 0.405855 6.62089 0.497335 7.1812 0.680295C7.74152 0.863256 8.24085 1.13198 8.67919 1.48647C9.11754 1.83714 9.47774 2.26786 9.75981 2.77863C10.0457 3.28558 10.2325 3.86495 10.3201 4.51675Z" fill="white"/>
</svg>
