<svg width="30" height="30" viewBox="0 0 30 30" fill="none" xmlns="http://www.w3.org/2000/svg">
<path d="M8.0363 3.01615C8.1939 2.82806 8.27146 2.58568 8.25235 2.34104C8.23324 2.0964 8.11897 1.869 7.93407 1.70767C7.74918 1.54634 7.5084 1.46393 7.26342 1.47814C7.01845 1.49234 6.78881 1.60203 6.6238 1.78365L5.0088 3.63365C4.09303 4.68311 3.57535 6.02112 3.5463 7.41365L3.47505 10.8124C3.46992 11.061 3.56376 11.3015 3.73594 11.481C3.90812 11.6604 4.14454 11.7641 4.39318 11.7693C4.64182 11.7744 4.88232 11.6806 5.06177 11.5084C5.24121 11.3362 5.34492 11.0998 5.35005 10.8512L5.42005 7.45365C5.44011 6.50081 5.79452 5.58535 6.4213 4.8674L8.0363 3.01615Z" fill="#8D99AB"/>
<path fill-rule="evenodd" clip-rule="evenodd" d="M7.79619 9.625C7.88013 8.28767 8.47059 7.0326 9.44734 6.1153C10.4241 5.19799 11.7137 4.68741 13.0537 4.6875H13.7499V3.75C13.7499 3.41848 13.8816 3.10054 14.1161 2.86612C14.3505 2.6317 14.6684 2.5 14.9999 2.5C15.3315 2.5 15.6494 2.6317 15.8838 2.86612C16.1182 3.10054 16.2499 3.41848 16.2499 3.75V4.6875H16.9462C18.2861 4.68741 19.5758 5.19799 20.5525 6.1153C21.5293 7.0326 22.1197 8.28767 22.2037 9.625L22.4799 14.0425C22.5852 15.7268 23.1508 17.3499 24.1149 18.735C24.3141 19.0213 24.4359 19.3543 24.4683 19.7016C24.5007 20.0489 24.4426 20.3987 24.2998 20.717C24.157 21.0352 23.9342 21.311 23.6532 21.5177C23.3722 21.7243 23.0425 21.8548 22.6962 21.8962L18.4374 22.4062V23.75C18.4374 24.6617 18.0753 25.536 17.4306 26.1807C16.786 26.8253 15.9116 27.1875 14.9999 27.1875C14.0883 27.1875 13.2139 26.8253 12.5693 26.1807C11.9246 25.536 11.5624 24.6617 11.5624 23.75V22.4062L7.30369 21.895C6.95756 21.8534 6.62807 21.723 6.34724 21.5164C6.06642 21.3098 5.84379 21.0341 5.701 20.7161C5.55821 20.398 5.50011 20.0485 5.53234 19.7013C5.56457 19.3542 5.68603 19.0213 5.88494 18.735C6.84906 17.3499 7.4146 15.7268 7.51994 14.0425L7.79619 9.62625V9.625ZM13.4374 23.75C13.4374 24.1644 13.6021 24.5618 13.8951 24.8549C14.1881 25.1479 14.5855 25.3125 14.9999 25.3125C15.4143 25.3125 15.8118 25.1479 16.1048 24.8549C16.3978 24.5618 16.5624 24.1644 16.5624 23.75V22.8125H13.4374V23.75Z" fill="#8D99AB"/>
<path d="M22.0537 1.69388C21.8664 1.85734 21.7517 2.08849 21.7348 2.33649C21.718 2.58449 21.8003 2.82905 21.9637 3.01638L23.5787 4.86638C24.2053 5.58483 24.5592 6.50076 24.5787 7.45388L24.6499 10.8501C24.6524 10.9732 24.6792 11.0946 24.7287 11.2074C24.7781 11.3202 24.8493 11.4221 24.9382 11.5074C25.027 11.5926 25.1318 11.6595 25.2465 11.7043C25.3613 11.7491 25.4837 11.7708 25.6068 11.7683C25.7299 11.7657 25.8513 11.7389 25.9641 11.6895C26.0768 11.64 26.1788 11.5688 26.264 11.48C26.3493 11.3911 26.4162 11.2863 26.461 11.1716C26.5057 11.0569 26.5274 10.9345 26.5249 10.8114L26.4537 7.41388C26.4246 6.02134 25.9069 4.68334 24.9912 3.63388L23.3762 1.78388C23.2127 1.59661 22.9815 1.48193 22.7335 1.46506C22.4855 1.44818 22.241 1.53048 22.0537 1.69388Z" fill="#8D99AB"/>
</svg>
