<svg width="8" height="8" viewBox="0 0 8 8" fill="none" xmlns="http://www.w3.org/2000/svg">
<g clip-path="url(#clip0_971_1271)">
<path d="M7.00011 7.00011L5.55243 5.55243M5.55243 5.55243C5.80007 5.3048 5.9965 5.01082 6.13051 4.68728C6.26453 4.36373 6.33351 4.01696 6.33351 3.66675C6.33351 3.31655 6.26453 2.96978 6.13052 2.64623C5.9965 2.32269 5.80007 2.02871 5.55243 1.78107C5.3048 1.53344 5.01082 1.33701 4.68728 1.20299C4.36373 1.06898 4.01696 1 3.66675 1C3.31655 1 2.96978 1.06898 2.64623 1.20299C2.32269 1.33701 2.02871 1.53344 1.78107 1.78107C1.28096 2.28119 1 2.95949 1 3.66675C1 4.37402 1.28096 5.05232 1.78107 5.55243C2.28119 6.05255 2.95949 6.33351 3.66675 6.33351C4.37402 6.33351 5.05232 6.05255 5.55243 5.55243Z" stroke="#D9D9D9" stroke-width="1.66667" stroke-linecap="round" stroke-linejoin="round"/>
</g>
<defs>
<clipPath id="clip0_971_1271">
<rect width="7.12114" height="7.12114" fill="white" transform="scale(1.12342)"/>
</clipPath>
</defs>
</svg>
