<svg width="22" height="22" viewBox="0 0 22 22" fill="none" xmlns="http://www.w3.org/2000/svg">
<g clip-path="url(#clip0_985_925)">
<path d="M3.22304 18.7769C2.17243 17.7622 1.33442 16.5484 0.757923 15.2064C0.181424 13.8643 -0.122025 12.4209 -0.134717 10.9603C-0.147408 9.49976 0.13091 8.05128 0.684 6.69942C1.23709 5.34756 2.05387 4.11939 3.08669 3.08657C4.11951 2.05375 5.34768 1.23697 6.69954 0.683878C8.0514 0.130788 9.49988 -0.147531 10.9605 -0.134839C12.421 -0.122147 13.8644 0.181302 15.2065 0.757801C16.5485 1.3343 17.7623 2.1723 18.777 3.22292C20.7808 5.29754 21.8895 8.07617 21.8645 10.9603C21.8394 13.8445 20.6825 16.6034 18.643 18.6429C16.6036 20.6824 13.8446 21.8393 10.9605 21.8643C8.07629 21.8894 5.29766 20.7807 3.22304 18.7769ZM17.226 17.2259C18.8773 15.5747 19.8049 13.3351 19.8049 10.9999C19.8049 8.66471 18.8773 6.42515 17.226 4.77392C15.5748 3.12268 13.3352 2.19502 11 2.19502C8.66484 2.19502 6.42528 3.12268 4.77404 4.77392C3.1228 6.42515 2.19514 8.66471 2.19514 10.9999C2.19514 13.3351 3.1228 15.5747 4.77404 17.2259C6.42528 18.8772 8.66484 19.8048 11 19.8048C13.3352 19.8048 15.5748 18.8772 17.226 17.2259ZM9.90004 5.49992H12.1V12.0999H9.90004V5.49992ZM9.90004 14.2999H12.1V16.4999H9.90004V14.2999Z" fill="white"/>
</g>
<defs>
<clipPath id="clip0_985_925">
<rect width="22" height="22" fill="white"/>
</clipPath>
</defs>
</svg>
