<svg width="30" height="30" viewBox="0 0 30 30" fill="none" xmlns="http://www.w3.org/2000/svg">
<g clip-path="url(#clip0_883_670)">
<path d="M12.5 25.8333C12.5 27.6742 11.8408 29.1667 9.99996 29.1667H4.16663C0.833293 29.1667 0.833293 17.5 4.16663 17.5H9.99996C11.8408 17.5 12.5 18.9925 12.5 20.8333V25.8333Z" fill="#553788"/>
<path d="M28.3334 27.5H27.5V19.1667H28.3334C28.5544 19.1667 28.7664 19.0789 28.9226 18.9226C29.0789 18.7663 29.1667 18.5543 29.1667 18.3333C29.1667 18.1123 29.0789 17.9004 28.9226 17.7441C28.7664 17.5878 28.5544 17.5 28.3334 17.5H8.33337C5.00004 17.5 5.00004 29.1667 8.33337 29.1667H28.3334C28.5544 29.1667 28.7664 29.0789 28.9226 28.9226C29.0789 28.7663 29.1667 28.5543 29.1667 28.3333C29.1667 28.1123 29.0789 27.9004 28.9226 27.7441C28.7664 27.5878 28.5544 27.5 28.3334 27.5Z" fill="#9266CC"/>
<path d="M28.4766 27.5003H9.16663C7.49996 27.5003 7.49996 19.167 9.16663 19.167H28.4766C29.3966 19.167 29.3966 27.5003 28.4766 27.5003Z" fill="#CCD6DD"/>
<path d="M9.58339 20.8337H29.0417C28.9292 19.8545 28.7417 19.167 28.4767 19.167H9.16672C7.79089 19.167 7.55172 24.8403 8.44755 26.8237C8.12089 24.3578 8.49922 20.8337 9.58339 20.8337Z" fill="#99AAB5"/>
<path d="M10 6.66634C10 7.5504 9.64885 8.39824 9.02373 9.02336C8.39861 9.64849 7.55076 9.99967 6.66671 9.99967H3.33337C4.06504e-05 9.99967 4.06504e-05 0.833008 3.33337 0.833008H6.66671C7.55076 0.833008 8.39861 1.1842 9.02373 1.80932C9.64885 2.43444 10 3.28229 10 4.16634V6.66634Z" fill="#226699"/>
<path d="M25.8334 8.33301H25V2.49967H25.8334C26.0544 2.49967 26.2664 2.41188 26.4226 2.2556C26.5789 2.09932 26.6667 1.88735 26.6667 1.66634C26.6667 1.44533 26.5789 1.23337 26.4226 1.07709C26.2664 0.920805 26.0544 0.833008 25.8334 0.833008H5.83337C2.50004 0.833008 2.50004 9.99967 5.83337 9.99967H25.8334C26.0544 9.99967 26.2664 9.91188 26.4226 9.7556C26.5789 9.59932 26.6667 9.38735 26.6667 9.16634C26.6667 8.94533 26.5789 8.73337 26.4226 8.57709C26.2664 8.42081 26.0544 8.33301 25.8334 8.33301Z" fill="#55ACEE"/>
<path d="M25.9766 8.33333H6.66663C4.99996 8.33333 4.99996 2.5 6.66663 2.5H25.9766C26.8966 2.5 26.8966 8.33333 25.9766 8.33333Z" fill="#CCD6DD"/>
<path d="M6.66661 4.16667H26.6041C26.5091 3.22917 26.3008 2.5 25.9766 2.5H6.66661C5.67245 2.5 5.27578 4.57417 5.46828 6.25C5.59828 5.11833 5.99411 4.16667 6.66661 4.16667Z" fill="#99AAB5"/>
<path d="M16.6667 14.1667C16.6667 15.0507 16.3155 15.8986 15.6904 16.5237C15.0652 17.1488 14.2174 17.5 13.3333 17.5H5C1.66667 17.5 1.66667 10 5 10H13.3333C14.2174 10 15.0652 10.3512 15.6904 10.9763C16.3155 11.6014 16.6667 12.4493 16.6667 13.3333V14.1667Z" fill="#F4900C"/>
<path d="M29.1667 15.8333H28.3333V11.6667H29.1667C29.3877 11.6667 29.5996 11.5789 29.7559 11.4226C29.9122 11.2663 30 11.0543 30 10.8333C30 10.6123 29.9122 10.4004 29.7559 10.2441C29.5996 10.0878 29.3877 10 29.1667 10H12.5C9.16667 10 9.16667 17.5 12.5 17.5H29.1667C29.3877 17.5 29.5996 17.4122 29.7559 17.2559C29.9122 17.0996 30 16.8877 30 16.6667C30 16.4457 29.9122 16.2337 29.7559 16.0774C29.5996 15.9211 29.3877 15.8333 29.1667 15.8333Z" fill="#FFAC33"/>
<path d="M29.31 15.8337H13.3334C11.6667 15.8337 11.6667 11.667 13.3334 11.667H29.31C30.23 11.667 30.23 15.8337 29.31 15.8337Z" fill="#CCD6DD"/>
<path d="M13.3334 13.3337H29.9867C29.9326 12.4487 29.7084 11.667 29.3101 11.667H13.3334C12.2717 11.667 11.8892 13.3562 12.1809 14.5837C12.3459 13.8845 12.7284 13.3337 13.3334 13.3337Z" fill="#99AAB5"/>
</g>
<defs>
<clipPath id="clip0_883_670">
<rect width="30" height="30" fill="white"/>
</clipPath>
</defs>
</svg>
