<svg width="20" height="20" viewBox="0 0 20 20" fill="none" xmlns="http://www.w3.org/2000/svg">
<g clip-path="url(#clip0_974_1040)">
<path d="M11.25 1.66653C11.25 2.03653 11.0892 2.36903 10.8333 2.5982V4.16653H15C15.663 4.16653 16.2989 4.42992 16.7678 4.89877C17.2366 5.36761 17.5 6.00349 17.5 6.66653V14.9999C17.5 15.6629 17.2366 16.2988 16.7678 16.7676C16.2989 17.2365 15.663 17.4999 15 17.4999H5C4.33696 17.4999 3.70107 17.2365 3.23223 16.7676C2.76339 16.2988 2.5 15.6629 2.5 14.9999V6.66653C2.5 6.00349 2.76339 5.36761 3.23223 4.89877C3.70107 4.42992 4.33696 4.16653 5 4.16653H9.16667V2.5982C9.01125 2.45919 8.89308 2.28352 8.82291 2.08717C8.75274 1.89082 8.7328 1.68004 8.76491 1.47402C8.79702 1.268 8.88015 1.07328 9.00674 0.907598C9.13333 0.741915 9.29936 0.610531 9.4897 0.52541C9.68005 0.440288 9.88866 0.404134 10.0965 0.420238C10.3044 0.436342 10.505 0.504194 10.6799 0.617614C10.8549 0.731035 10.9987 0.886421 11.0983 1.06962C11.1979 1.25283 11.25 1.45802 11.25 1.66653ZM5 5.8332C4.77899 5.8332 4.56702 5.921 4.41074 6.07728C4.25446 6.23356 4.16667 6.44552 4.16667 6.66653V14.9999C4.16667 15.2209 4.25446 15.4328 4.41074 15.5891C4.56702 15.7454 4.77899 15.8332 5 15.8332H15C15.221 15.8332 15.433 15.7454 15.5893 15.5891C15.7455 15.4328 15.8333 15.2209 15.8333 14.9999V6.66653C15.8333 6.44552 15.7455 6.23356 15.5893 6.07728C15.433 5.921 15.221 5.8332 15 5.8332H5ZM1.66667 8.3332H0V13.3332H1.66667V8.3332ZM18.3333 8.3332H20V13.3332H18.3333V8.3332ZM7.5 12.0832C7.83152 12.0832 8.14946 11.9515 8.38388 11.7171C8.6183 11.4827 8.75 11.1647 8.75 10.8332C8.75 10.5017 8.6183 10.1837 8.38388 9.94932C8.14946 9.7149 7.83152 9.5832 7.5 9.5832C7.16848 9.5832 6.85054 9.7149 6.61612 9.94932C6.3817 10.1837 6.25 10.5017 6.25 10.8332C6.25 11.1647 6.3817 11.4827 6.61612 11.7171C6.85054 11.9515 7.16848 12.0832 7.5 12.0832ZM12.5 12.0832C12.8315 12.0832 13.1495 11.9515 13.3839 11.7171C13.6183 11.4827 13.75 11.1647 13.75 10.8332C13.75 10.5017 13.6183 10.1837 13.3839 9.94932C13.1495 9.7149 12.8315 9.5832 12.5 9.5832C12.1685 9.5832 11.8505 9.7149 11.6161 9.94932C11.3817 10.1837 11.25 10.5017 11.25 10.8332C11.25 11.1647 11.3817 11.4827 11.6161 11.7171C11.8505 11.9515 12.1685 12.0832 12.5 12.0832Z" fill="white"/>
</g>
<defs>
<clipPath id="clip0_974_1040">
<rect width="20" height="20" fill="white"/>
</clipPath>
</defs>
</svg>
