<svg width="24" height="23" viewBox="0 0 24 23" fill="none" xmlns="http://www.w3.org/2000/svg">
<path d="M5.25 10.5957H20.25C20.4489 10.5957 20.6397 10.6701 20.7803 10.8026C20.921 10.9351 21 11.1148 21 11.3021C21 11.4894 20.921 11.6691 20.7803 11.8016C20.6397 11.9341 20.4489 12.0085 20.25 12.0085H5.25C5.05109 12.0085 4.86032 11.9341 4.71967 11.8016C4.57902 11.6691 4.5 11.4894 4.5 11.3021C4.5 11.1148 4.57902 10.9351 4.71967 10.8026C4.86032 10.6701 5.05109 10.5957 5.25 10.5957Z" fill="white"/>
<path d="M5.5605 11.3022L11.781 17.1596C11.9218 17.2922 12.0009 17.4721 12.0009 17.6597C12.0009 17.8473 11.9218 18.0272 11.781 18.1598C11.6402 18.2925 11.4492 18.367 11.25 18.367C11.0508 18.367 10.8598 18.2925 10.719 18.1598L3.969 11.8023C3.89915 11.7367 3.84374 11.6587 3.80593 11.5729C3.76812 11.4871 3.74866 11.3951 3.74866 11.3022C3.74866 11.2092 3.76812 11.1172 3.80593 11.0314C3.84374 10.9456 3.89915 10.8676 3.969 10.802L10.719 4.44446C10.8598 4.31182 11.0508 4.2373 11.25 4.2373C11.4492 4.2373 11.6402 4.31182 11.781 4.44446C11.9218 4.57711 12.0009 4.75701 12.0009 4.94459C12.0009 5.13218 11.9218 5.31208 11.781 5.44472L5.5605 11.3022Z" fill="white"/>
</svg>
