<svg width="22" height="22" viewBox="0 0 22 22" fill="none" xmlns="http://www.w3.org/2000/svg">
<path d="M17.1875 10.3125H3.4375C3.25516 10.3125 3.08029 10.3849 2.95136 10.5139C2.82243 10.6428 2.75 10.8177 2.75 11C2.75 11.1823 2.82243 11.3572 2.95136 11.4861C3.08029 11.6151 3.25516 11.6875 3.4375 11.6875H17.1875C17.3698 11.6875 17.5447 11.6151 17.6736 11.4861C17.8026 11.3572 17.875 11.1823 17.875 11C17.875 10.8177 17.8026 10.6428 17.6736 10.5139C17.5447 10.3849 17.3698 10.3125 17.1875 10.3125Z" fill="white"/>
<path d="M16.9029 10.9999L11.2007 16.7006C11.0716 16.8297 10.9991 17.0048 10.9991 17.1874C10.9991 17.37 11.0716 17.545 11.2007 17.6741C11.3298 17.8032 11.5049 17.8758 11.6875 17.8758C11.8701 17.8758 12.0451 17.8032 12.1742 17.6741L18.3617 11.4866C18.4258 11.4228 18.4766 11.3469 18.5112 11.2634C18.5459 11.1799 18.5637 11.0903 18.5637 10.9999C18.5637 10.9095 18.5459 10.8199 18.5112 10.7364C18.4766 10.6529 18.4258 10.577 18.3617 10.5131L12.1742 4.32564C12.0451 4.19655 11.8701 4.12402 11.6875 4.12402C11.5049 4.12402 11.3298 4.19655 11.2007 4.32564C11.0716 4.45474 10.9991 4.62983 10.9991 4.81239C10.9991 4.99496 11.0716 5.17005 11.2007 5.29914L16.9029 10.9999Z" fill="white"/>
</svg>
