<svg width="28" height="28" viewBox="0 0 28 28" fill="none" xmlns="http://www.w3.org/2000/svg">
<path fill-rule="evenodd" clip-rule="evenodd" d="M8.94331 25.6668H19.0544C23.0097 25.6668 25.6661 22.8924 25.6661 18.764V9.23634C25.6661 5.10796 23.0097 2.3335 19.0556 2.3335H8.94331C4.98914 2.3335 2.33276 5.10796 2.33276 9.23634V18.764C2.33276 22.8924 4.98914 25.6668 8.94331 25.6668ZM9.91411 12.8336C8.3057 12.8336 6.99878 11.5249 6.99878 9.91689C6.99878 8.30891 8.3057 7.00022 9.91411 7.00022C11.5214 7.00022 12.8295 8.30891 12.8295 9.91689C12.8295 11.5249 11.5214 12.8336 9.91411 12.8336ZM23.1232 17.4232C23.5138 18.4249 23.3109 19.6289 22.8932 20.621C22.3982 21.8009 21.4502 22.6942 20.2559 23.0843C19.7257 23.2577 19.1696 23.3336 18.6147 23.3336H8.78232C7.80389 23.3336 6.93809 23.0988 6.22832 22.6617C5.78369 22.3872 5.70509 21.7539 6.03475 21.3434C6.58614 20.6571 7.13049 19.9684 7.67953 19.2737C8.72601 17.9445 9.43108 17.5592 10.2148 17.8975C10.5327 18.0372 10.8518 18.2467 11.1803 18.4682C12.0555 19.063 13.2721 19.8805 14.8746 18.9932C15.9713 18.379 16.6073 17.3254 17.1612 16.4079L17.1705 16.3926C17.2098 16.3282 17.2487 16.2638 17.2874 16.1996L17.2875 16.1996C17.4736 15.8916 17.6573 15.5877 17.865 15.3078C18.1255 14.9574 19.091 13.8618 20.3416 14.642C21.1382 15.1332 21.8081 15.7978 22.5249 16.5093C22.7982 16.7814 22.993 17.0909 23.1232 17.4232Z" fill="#9E9E9E"/>
</svg>
