<svg width="27" height="27" viewBox="0 0 27 27" fill="none" xmlns="http://www.w3.org/2000/svg">
<path d="M26.5275 13.6923C27.0169 14.323 26.9578 15.0866 26.3841 15.3861L9.00071 24.4881C8.23712 24.8846 7.23305 24.5577 6.77743 23.7604L0.307976 12.4604C-0.0696016 11.8002 0.223601 11.0261 0.947117 10.7371L17.7145 4.05668C18.2756 3.8352 19.0666 4.08832 19.4843 4.62621L26.5275 13.6923Z" fill="#FCC21B"/>
<mask id="mask0_967_617" style="mask-type:luminance" maskUnits="userSpaceOnUse" x="0" y="3" width="27" height="22">
<path d="M26.5275 13.6923C27.0169 14.323 26.9578 15.0866 26.3841 15.3861L9.00071 24.4881C8.23712 24.8846 7.23305 24.5577 6.77743 23.7604L0.307976 12.4604C-0.0696016 11.8002 0.223601 11.0261 0.947117 10.7371L17.7145 4.05668C18.2756 3.8352 19.0666 4.08832 19.4843 4.62621L26.5275 13.6923Z" fill="white"/>
</mask>
<g mask="url(#mask0_967_617)">
<path d="M22.5409 7.55621L1.77836 16.751L-0.00405884 13.5954L20.5729 5.04395L22.5409 7.55621Z" fill="#2F2F2F"/>
</g>
<path d="M25.1563 13.6315C25.3968 13.9479 25.363 14.3276 25.0719 14.4732L22.7326 15.6671C22.431 15.821 21.9859 15.6776 21.7454 15.3485L20.3722 13.4649C20.1423 13.1464 20.1993 12.7709 20.4988 12.6275L22.8254 11.52C23.1123 11.3829 23.5342 11.52 23.7705 11.8238L25.1563 13.6315Z" fill="white"/>
</svg>
