<svg width="25" height="25" viewBox="0 0 25 25" fill="none" xmlns="http://www.w3.org/2000/svg">
<path d="M12.5001 18.6667C13.0526 18.6667 13.5825 18.4472 13.9732 18.0565C14.3639 17.6658 14.5834 17.1359 14.5834 16.5833C14.5834 16.0308 14.3639 15.5009 13.9732 15.1102C13.5825 14.7195 13.0526 14.5 12.5001 14.5C11.9475 14.5 11.4176 14.7195 11.0269 15.1102C10.6362 15.5009 10.4167 16.0308 10.4167 16.5833C10.4167 17.1359 10.6362 17.6658 11.0269 18.0565C11.4176 18.4472 11.9475 18.6667 12.5001 18.6667ZM18.7501 9.29167C19.3026 9.29167 19.8325 9.51116 20.2232 9.90186C20.6139 10.2926 20.8334 10.8225 20.8334 11.375V21.7917C20.8334 22.3442 20.6139 22.8741 20.2232 23.2648C19.8325 23.6555 19.3026 23.875 18.7501 23.875H6.25008C5.69755 23.875 5.16764 23.6555 4.77694 23.2648C4.38624 22.8741 4.16675 22.3442 4.16675 21.7917V11.375C4.16675 10.8225 4.38624 10.2926 4.77694 9.90186C5.16764 9.51116 5.69755 9.29167 6.25008 9.29167H7.29175V7.20833C7.29175 5.827 7.84048 4.50224 8.81723 3.52549C9.79399 2.54873 11.1187 2 12.5001 2C13.184 2 13.8613 2.13472 14.4932 2.39646C15.1251 2.6582 15.6993 3.04185 16.1829 3.52549C16.6666 4.00912 17.0502 4.58329 17.312 5.21519C17.5737 5.84709 17.7084 6.52436 17.7084 7.20833V9.29167H18.7501ZM12.5001 4.08333C11.6713 4.08333 10.8764 4.41257 10.2904 4.99862C9.70432 5.58468 9.37508 6.37953 9.37508 7.20833V9.29167H15.6251V7.20833C15.6251 6.37953 15.2958 5.58468 14.7098 4.99862C14.1237 4.41257 13.3289 4.08333 12.5001 4.08333Z" fill="#8E8E8E"/>
</svg>
