<svg width="30" height="30" viewBox="0 0 30 30" fill="none" xmlns="http://www.w3.org/2000/svg">
<path d="M14.0913 25.391C13.9785 25.5104 13.8904 25.6507 13.8318 25.8042C13.7733 25.9576 13.7456 26.121 13.7502 26.2851C13.7549 26.4493 13.7918 26.6109 13.8589 26.7607C13.926 26.9106 14.022 27.0457 14.1413 27.1585C14.2606 27.2713 14.401 27.3595 14.5544 27.418C14.7078 27.4765 14.8713 27.5042 15.0354 27.4996C15.1995 27.4949 15.3611 27.458 15.511 27.3909C15.6608 27.3238 15.796 27.2279 15.9088 27.1085L26.5338 15.8585C26.7532 15.6264 26.8755 15.3192 26.8755 14.9998C26.8755 14.6804 26.7532 14.3731 26.5338 14.141L15.9088 2.88977C15.7968 2.76782 15.6616 2.66934 15.5112 2.60006C15.3608 2.53078 15.1981 2.49208 15.0326 2.4862C14.8671 2.48032 14.7021 2.50738 14.5472 2.56581C14.3922 2.62424 14.2504 2.71288 14.13 2.82658C14.0096 2.94027 13.913 3.07675 13.8458 3.2281C13.7786 3.37944 13.7422 3.54264 13.7385 3.70819C13.7349 3.87375 13.7643 4.03838 13.8248 4.19251C13.8854 4.34664 13.976 4.48719 14.0913 4.60602L23.9063 14.9998L14.0913 25.391Z" fill="white"/>
</svg>
