<svg width="22" height="22" viewBox="0 0 22 22" fill="none" xmlns="http://www.w3.org/2000/svg">
<path d="M4.37622 10.1885H18.1262C18.3086 10.1885 18.4834 10.2609 18.6124 10.3898C18.7413 10.5188 18.8137 10.6936 18.8137 10.876C18.8137 11.0583 18.7413 11.2332 18.6124 11.3621C18.4834 11.491 18.3086 11.5635 18.1262 11.5635H4.37622C4.19388 11.5635 4.01902 11.491 3.89008 11.3621C3.76115 11.2332 3.68872 11.0583 3.68872 10.876C3.68872 10.6936 3.76115 10.5188 3.89008 10.3898C4.01902 10.2609 4.19388 10.1885 4.37622 10.1885Z" fill="black"/>
<path d="M4.66085 10.8759L10.363 16.5766C10.4921 16.7057 10.5646 16.8808 10.5646 17.0634C10.5646 17.2459 10.4921 17.421 10.363 17.5501C10.2339 17.6792 10.0588 17.7517 9.87623 17.7517C9.69366 17.7517 9.51857 17.6792 9.38948 17.5501L3.20198 11.3626C3.13795 11.2988 3.08716 11.2229 3.0525 11.1394C3.01784 11.0558 3 10.9663 3 10.8759C3 10.7854 3.01784 10.6959 3.0525 10.6124C3.08716 10.5288 3.13795 10.453 3.20198 10.3891L9.38948 4.20162C9.51857 4.07252 9.69366 4 9.87623 4C10.0588 4 10.2339 4.07252 10.363 4.20162C10.4921 4.33071 10.5646 4.5058 10.5646 4.68837C10.5646 4.87094 10.4921 5.04602 10.363 5.17512L4.66085 10.8759Z" fill="black"/>
</svg>
