<svg width="160" height="91" viewBox="0 0 160 91" fill="none" xmlns="http://www.w3.org/2000/svg">
<circle cx="80" cy="52" r="39" fill="url(#paint0_linear_988_989)"/>
<rect y="90" width="160" height="1" fill="#345086"/>
<path d="M107.026 52.2578H82.3488H77.6514H52.9739L47.1675 63.8707H52.4194V89.9997H107.581V63.8707H112.833L107.026 52.2578ZM105.232 55.161L108.135 60.9675H85.252L82.3488 55.161H105.232ZM54.7681 55.161H77.6514L74.7481 60.9675H51.8649L54.7681 55.161ZM104.677 87.0965H81.4517V76.9352H78.5484V87.0965H55.3226V63.8707H76.5423L78.5484 59.8585V72.5804H81.4517V59.8585L83.4578 63.8707H104.677V87.0965Z" fill="#345086"/>
<path d="M72.7418 81.29H69.8386V84.1933H72.7418V81.29Z" fill="#345086"/>
<path d="M66.9355 81.29H58.2258V84.1933H66.9355V81.29Z" fill="#345086"/>
<path d="M66.9355 75.4834H58.2258V78.3866H66.9355V75.4834Z" fill="#345086"/>
<path d="M40.8065 50.8066H37.9033V53.7099H40.8065V50.8066Z" fill="#EF5A56"/>
<path d="M122.097 45H119.194V47.9032H122.097V45Z" fill="#EF5A56"/>
<path d="M40.8065 45H37.9033V47.9032H40.8065V45Z" fill="#EF5A56"/>
<path d="M43.7096 47.9033H40.8064V50.8065H43.7096V47.9033Z" fill="#EF5A56"/>
<path d="M37.9032 47.9033H35V50.8065H37.9032V47.9033Z" fill="#EF5A56"/>
<path d="M122.097 39.1934H119.194V42.0966H122.097V39.1934Z" fill="#EF5A56"/>
<path d="M125 42.0967H122.097V44.9999H125V42.0967Z" fill="#EF5A56"/>
<path d="M119.194 42.0967H116.29V44.9999H119.194V42.0967Z" fill="#EF5A56"/>
<path d="M81.4516 30.4834H78.5483V49.3544H81.4516V30.4834Z" fill="#345086"/>
<path d="M117.713 26.5719L119.822 22.9705L116.085 21.3519L113.387 18.0146L110.688 21.3505L106.952 22.969L109.061 26.5705L109.373 30.8658L113.387 29.8453L117.402 30.8672L117.713 26.5719ZM114.868 25.6864L114.757 27.1976L113.387 26.8492L112.018 27.1976L111.908 25.6864L111.114 24.3292L112.497 23.7296L113.387 22.6308L114.277 23.7311L115.66 24.3306L114.868 25.6864Z" fill="#F5BE00"/>
<path d="M50.9385 26.5719L53.0477 22.9705L49.3113 21.3519L46.6127 18.0146L43.9142 21.3505L40.1777 22.969L42.2869 26.5705L42.599 30.8658L46.6127 29.8453L50.6279 30.8672L50.9385 26.5719ZM48.0934 25.6864L47.9831 27.1976L46.6127 26.8492L45.2439 27.1976L45.1321 25.6864L44.3381 24.3292L45.7214 23.7296L46.6127 22.6308L47.5026 23.7311L48.886 24.3306L48.0934 25.6864Z" fill="#F5BE00"/>
<path d="M53.0652 34.5952C55.8291 36.4387 58.2852 38.6887 60.3596 41.2842L66.1094 48.4682L64.9205 38.9573C64.2993 33.9913 61.6472 29.4202 57.6436 26.4182L56.253 25.376L51.9983 33.8839L53.0652 34.5952ZM57.2488 29.8774C59.7035 32.2 61.3685 35.2919 61.9389 38.6365C60.1055 36.4837 58.0254 34.5647 55.7318 32.9113L57.2488 29.8774Z" fill="#345086"/>
<path d="M95.0795 38.9568L93.8906 48.4677L99.6405 41.2822C101.716 38.6868 104.171 36.4368 106.935 34.5932L108 33.8819L103.746 25.374L102.355 26.4192C98.3529 29.4211 95.6993 33.9908 95.0795 38.9568ZM104.268 32.9108C101.975 34.5642 99.893 36.4818 98.0611 38.636C98.633 35.2914 100.297 32.1995 102.751 29.8769L104.268 32.9108Z" fill="#345086"/>
<path d="M81.4516 24.6777H78.5483V27.581H81.4516V24.6777Z" fill="#EF5A56"/>
<path d="M73.2962 23.6091L79.9998 21.9006L86.7033 23.6077L87.2288 16.4091L90.7896 10.3269L84.4911 7.60075L79.9998 2.04688L75.507 7.60075L69.2085 10.3269L72.7693 16.4091L73.2962 23.6091ZM77.3158 9.97994L79.9998 6.663L82.6838 9.98139L86.6293 11.6899L84.3837 15.5266L84.0614 19.9409L79.9998 18.9059L75.9382 19.9395L75.6159 15.5251L73.3703 11.6885L77.3158 9.97994Z" fill="#F5BE00"/>
<path d="M85.8064 49.3549H88.7096V43.2727C88.7096 36.3006 91.1672 29.5128 95.6324 24.1549L93.4012 22.2969C88.5035 28.1745 85.8064 35.6241 85.8064 43.2727V49.3549Z" fill="#345086"/>
<path d="M71.2902 49.3549H74.1934V43.2727C74.1934 35.6227 71.4963 28.1745 66.6 22.2969L64.3689 24.1549C68.8326 29.5128 71.2902 36.3006 71.2902 43.2727V49.3549Z" fill="#345086"/>
<path d="M98.871 17.4189H95.9678V20.3222H98.871V17.4189Z" fill="#EF5A56"/>
<path d="M64.0324 17.4189H61.1292V20.3222H64.0324V17.4189Z" fill="#EF5A56"/>
<path d="M103.226 11.6133H100.323V14.5165H103.226V11.6133Z" fill="#EF5A56"/>
<path d="M59.6774 11.6133H56.7742V14.5165H59.6774V11.6133Z" fill="#EF5A56"/>
<path d="M117.742 5.80664H114.839V8.70987H117.742V5.80664Z" fill="#EF5A56"/>
<path d="M40.8065 5.80664H37.9033V8.70987H40.8065V5.80664Z" fill="#EF5A56"/>
<path d="M120.645 2.90332H117.742V5.80655H120.645V2.90332Z" fill="#EF5A56"/>
<path d="M117.742 0H114.839V2.90323H117.742V0Z" fill="#EF5A56"/>
<path d="M114.839 2.90332H111.936V5.80655H114.839V2.90332Z" fill="#EF5A56"/>
<path d="M40.8065 0H37.9033V2.90323H40.8065V0Z" fill="#EF5A56"/>
<path d="M43.7096 2.90332H40.8064V5.80655H43.7096V2.90332Z" fill="#EF5A56"/>
<path d="M37.9032 2.90332H35V5.80655H37.9032V2.90332Z" fill="#EF5A56"/>
<defs>
<linearGradient id="paint0_linear_988_989" x1="80" y1="13" x2="80" y2="91" gradientUnits="userSpaceOnUse">
<stop stop-color="#3D5A98" stop-opacity="0.27"/>
<stop offset="1" stop-color="#ECDADF" stop-opacity="0"/>
</linearGradient>
</defs>
</svg>
