<svg width="30" height="30" viewBox="0 0 30 30" fill="none" xmlns="http://www.w3.org/2000/svg">
<path d="M8.03606 3.01615C8.19365 2.82806 8.27122 2.58568 8.25211 2.34104C8.23299 2.0964 8.11872 1.869 7.93383 1.70767C7.74893 1.54634 7.50815 1.46393 7.26318 1.47814C7.01821 1.49234 6.78857 1.60203 6.62356 1.78365L5.00856 3.63365C4.09279 4.68311 3.57511 6.02112 3.54606 7.41365L3.47481 10.8124C3.46967 11.061 3.56352 11.3015 3.7357 11.481C3.90788 11.6604 4.14429 11.7641 4.39293 11.7693C4.64158 11.7744 4.88207 11.6806 5.06152 11.5084C5.24097 11.3362 5.34467 11.0998 5.34981 10.8512L5.41981 7.45365C5.43986 6.50081 5.79428 5.58535 6.42106 4.8674L8.03606 3.01615Z" fill="white"/>
<path fill-rule="evenodd" clip-rule="evenodd" d="M7.79643 9.625C7.88038 8.28767 8.47083 7.0326 9.44759 6.1153C10.4243 5.19799 11.714 4.68741 13.0539 4.6875H13.7502V3.75C13.7502 3.41848 13.8819 3.10054 14.1163 2.86612C14.3507 2.6317 14.6687 2.5 15.0002 2.5C15.3317 2.5 15.6496 2.6317 15.8841 2.86612C16.1185 3.10054 16.2502 3.41848 16.2502 3.75V4.6875H16.9464C18.2864 4.68741 19.576 5.19799 20.5528 6.1153C21.5295 7.0326 22.12 8.28767 22.2039 9.625L22.4802 14.0425C22.5855 15.7268 23.151 17.3499 24.1152 18.735C24.3144 19.0213 24.4361 19.3543 24.4685 19.7016C24.5009 20.0489 24.4429 20.3987 24.3 20.717C24.1572 21.0352 23.9345 21.311 23.6535 21.5177C23.3725 21.7243 23.0428 21.8548 22.6964 21.8962L18.4377 22.4062V23.75C18.4377 24.6617 18.0755 25.536 17.4309 26.1807C16.7862 26.8253 15.9119 27.1875 15.0002 27.1875C14.0885 27.1875 13.2142 26.8253 12.5695 26.1807C11.9248 25.536 11.5627 24.6617 11.5627 23.75V22.4062L7.30393 21.895C6.9578 21.8534 6.62832 21.723 6.34749 21.5164C6.06666 21.3098 5.84404 21.0341 5.70125 20.7161C5.55846 20.398 5.50035 20.0485 5.53258 19.7013C5.56481 19.3542 5.68628 19.0213 5.88518 18.735C6.84931 17.3499 7.41484 15.7268 7.52018 14.0425L7.79643 9.62625V9.625ZM13.4377 23.75C13.4377 24.1644 13.6023 24.5618 13.8953 24.8549C14.1884 25.1479 14.5858 25.3125 15.0002 25.3125C15.4146 25.3125 15.812 25.1479 16.105 24.8549C16.3981 24.5618 16.5627 24.1644 16.5627 23.75V22.8125H13.4377V23.75Z" fill="white"/>
<path d="M22.0539 1.69388C21.8666 1.85734 21.752 2.08849 21.7351 2.33649C21.7182 2.58449 21.8005 2.82905 21.9639 3.01638L23.5789 4.86638C24.2055 5.58483 24.5595 6.50076 24.5789 7.45388L24.6501 10.8501C24.6527 10.9732 24.6795 11.0946 24.7289 11.2074C24.7784 11.3202 24.8496 11.4221 24.9384 11.5074C25.0273 11.5926 25.1321 11.6595 25.2468 11.7043C25.3615 11.7491 25.4839 11.7708 25.607 11.7683C25.7301 11.7657 25.8515 11.7389 25.9643 11.6895C26.0771 11.64 26.179 11.5688 26.2643 11.48C26.3495 11.3911 26.4164 11.2863 26.4612 11.1716C26.506 11.0569 26.5277 10.9345 26.5251 10.8114L26.4539 7.41388C26.4248 6.02134 25.9072 4.68334 24.9914 3.63388L23.3764 1.78388C23.2129 1.59661 22.9818 1.48193 22.7338 1.46506C22.4858 1.44818 22.2412 1.53048 22.0539 1.69388Z" fill="white"/>
</svg>
