<svg width="235" height="24" viewBox="0 0 235 24" fill="none" xmlns="http://www.w3.org/2000/svg">
<path d="M233.304 19.2359C233.986 19.2359 234.552 19.2039 235 19.1399V23.0447C234.061 23.2154 232.973 23.3007 231.735 23.3007C231.181 23.3007 230.69 23.2687 230.263 23.2047C229.836 23.1407 229.356 23.002 228.823 22.7886C228.289 22.5539 227.852 22.2445 227.511 21.8605C227.169 21.4764 226.87 20.9216 226.614 20.1961C226.38 19.4706 226.262 18.6171 226.262 17.6356V11.4904H223.83V7.61758H226.262V3.04065H231.159V7.61758H234.648V11.4904H231.159V16.6114C231.159 17.6569 231.341 18.3611 231.703 18.7238C232.066 19.0652 232.6 19.2359 233.304 19.2359Z" fill="#272727"/>
<path d="M206.454 23.0449V7.61773H211.351V9.85819C212.268 8.08716 213.933 7.20165 216.344 7.20165C220.099 7.20165 221.977 9.30341 221.977 13.5069V23.0449H217.048V15.1072C217.048 13.7843 216.835 12.8241 216.408 12.2267C216.003 11.6292 215.309 11.3305 214.328 11.3305C212.343 11.3305 211.351 12.5467 211.351 14.9792V23.0449H206.454Z" fill="#272727"/>
<path d="M193.145 23.461C191.31 23.461 189.902 22.9168 188.92 21.8286C187.939 20.7191 187.448 19.1614 187.448 17.1557V7.61775H192.409V16.0675C192.409 18.2439 193.263 19.3321 194.97 19.3321C196.954 19.3321 197.946 18.1906 197.946 15.9074V7.61775H202.811V23.0449H197.946V20.8364C197.029 22.5861 195.428 23.461 193.145 23.461Z" fill="#272727"/>
<path d="M182.864 21.2203C181.328 22.7566 179.258 23.5247 176.655 23.5247C174.052 23.5247 171.972 22.7566 170.414 21.2203C168.856 19.6839 168.077 17.7209 168.077 15.3311C168.077 12.9413 168.856 10.9889 170.414 9.47388C171.972 7.93757 174.052 7.16942 176.655 7.16942C179.258 7.16942 181.328 7.93757 182.864 9.47388C184.422 10.9889 185.201 12.9413 185.201 15.3311C185.201 17.7209 184.422 19.6839 182.864 21.2203ZM176.655 19.3639C177.786 19.3639 178.682 18.9905 179.344 18.2437C180.005 17.4968 180.336 16.526 180.336 15.3311C180.336 14.1362 180.005 13.1653 179.344 12.4185C178.682 11.6717 177.786 11.2983 176.655 11.2983C175.503 11.2983 174.596 11.6717 173.935 12.4185C173.294 13.1653 172.974 14.1362 172.974 15.3311C172.974 16.526 173.294 17.4968 173.935 18.2437C174.596 18.9905 175.503 19.3639 176.655 19.3639Z" fill="#272727"/>
<path d="M158.365 23.5247C155.847 23.5247 153.841 22.7779 152.347 21.2843C150.854 19.7693 150.107 17.7849 150.107 15.3311C150.107 12.8772 150.854 10.9035 152.347 9.40987C153.841 7.91623 155.847 7.16942 158.365 7.16942C160.648 7.16942 162.504 7.73487 163.934 8.86576C165.363 9.99666 166.174 11.533 166.366 13.4747H161.469C161.106 12.0237 160.082 11.2983 158.397 11.2983C157.33 11.2983 156.497 11.6503 155.9 12.3545C155.303 13.0586 155.004 14.0508 155.004 15.3311C155.004 16.6113 155.303 17.6035 155.9 18.3077C156.497 19.0118 157.33 19.3639 158.397 19.3639C160.082 19.3639 161.106 18.6811 161.469 17.3155H166.366C166.174 19.2145 165.363 20.7295 163.934 21.8604C162.504 22.9699 160.648 23.5247 158.365 23.5247Z" fill="#272727"/>
<path d="M140.394 23.5247C137.876 23.5247 135.87 22.7779 134.377 21.2843C132.883 19.7693 132.136 17.7849 132.136 15.3311C132.136 12.8772 132.883 10.9035 134.377 9.40987C135.87 7.91623 137.876 7.16942 140.394 7.16942C142.677 7.16942 144.533 7.73487 145.963 8.86576C147.393 9.99666 148.203 11.533 148.395 13.4747H143.498C143.136 12.0237 142.112 11.2983 140.426 11.2983C139.359 11.2983 138.527 11.6503 137.929 12.3545C137.332 13.0586 137.033 14.0508 137.033 15.3311C137.033 16.6113 137.332 17.6035 137.929 18.3077C138.527 19.0118 139.359 19.3639 140.426 19.3639C142.112 19.3639 143.136 18.6811 143.498 17.3155H148.395C148.203 19.2145 147.393 20.7295 145.963 21.8604C144.533 22.9699 142.677 23.5247 140.394 23.5247Z" fill="#272727"/>
<path d="M126.257 23.0448L125.489 20.3242H117.551L116.783 23.0448H111.31L118.895 0.640266H124.113L131.73 23.0448H126.257ZM118.703 16.2594H124.337L121.52 6.30541L118.703 16.2594Z" fill="#272727"/>
<path d="M103.238 14.5309C103.238 15.171 103.196 15.8858 103.11 16.6753H91.716C91.7587 17.6782 92.1001 18.457 92.7402 19.0118C93.3804 19.5666 94.2445 19.844 95.3328 19.844C96.8264 19.844 97.7866 19.3639 98.2133 18.4037H103.014C102.78 19.9187 101.947 21.1562 100.518 22.1164C99.1095 23.0553 97.3812 23.5247 95.3328 23.5247C92.7082 23.5247 90.6385 22.7992 89.1235 21.3483C87.6085 19.8973 86.851 17.8916 86.851 15.3311C86.851 12.8132 87.6085 10.8288 89.1235 9.37786C90.6385 7.90557 92.6549 7.16942 95.1727 7.16942C97.5625 7.16942 99.5043 7.85222 100.998 9.21783C102.492 10.5834 103.238 12.3545 103.238 14.5309ZM91.716 13.6347H98.4054C98.384 12.6105 98.096 11.821 97.5412 11.2662C96.9864 10.7115 96.1863 10.4341 95.1407 10.4341C94.0952 10.4341 93.263 10.7328 92.6442 11.3303C92.0468 11.9064 91.7374 12.6745 91.716 13.6347Z" fill="#272727"/>
<path d="M83.9768 19.2359C84.6596 19.2359 85.225 19.2039 85.6731 19.1399V23.0447C84.7342 23.2154 83.646 23.3007 82.4084 23.3007C81.8537 23.3007 81.3629 23.2687 80.9361 23.2047C80.5094 23.1407 80.0293 23.002 79.4959 22.7886C78.9624 22.5539 78.525 22.2445 78.1836 21.8605C77.8422 21.4764 77.5435 20.9216 77.2874 20.1961C77.0527 19.4706 76.9353 18.6171 76.9353 17.6356V11.4904H74.5028V7.61758H76.9353V3.04065H81.8323V7.61758H85.321V11.4904H81.8323V16.6114C81.8323 17.6569 82.0137 18.3611 82.3764 18.7238C82.7392 19.0652 83.2726 19.2359 83.9768 19.2359Z" fill="#272727"/>
<path d="M62.4596 23.4609C60.2192 23.4609 58.4481 22.7034 57.1465 21.1885C55.8449 19.6735 55.1941 17.7211 55.1941 15.3313C55.1941 12.9842 55.8663 11.0424 57.2105 9.50612C58.5548 7.96981 60.3258 7.20165 62.5236 7.20165C63.6118 7.20165 64.5827 7.43636 65.4362 7.90579C66.2897 8.37522 66.9298 9.01535 67.3566 9.82618V7.61773H72.2216V23.0449H67.3566V20.8684C66.9298 21.6366 66.2684 22.266 65.3722 22.7568C64.4973 23.2262 63.5265 23.4609 62.4596 23.4609ZM63.8679 19.3961C65.0415 19.3961 65.9483 19.012 66.5884 18.2439C67.2286 17.4757 67.5486 16.5049 67.5486 15.3313C67.5486 14.1791 67.2286 13.2189 66.5884 12.4507C65.9483 11.6826 65.0415 11.2985 63.8679 11.2985C62.7583 11.2985 61.8622 11.6719 61.1793 12.4187C60.5179 13.1655 60.1871 14.1364 60.1871 15.3313C60.1871 16.5262 60.5179 17.5077 61.1793 18.2759C61.8622 19.0227 62.7583 19.3961 63.8679 19.3961Z" fill="#272727"/>
<path d="M53.5461 14.5309C53.5461 15.171 53.5034 15.8858 53.418 16.6753H42.0237C42.0664 17.6782 42.4078 18.457 43.0479 19.0118C43.6881 19.5666 44.5522 19.844 45.6405 19.844C47.1341 19.844 48.0943 19.3639 48.5211 18.4037H53.322C53.0873 19.9187 52.2551 21.1562 50.8255 22.1164C49.4172 23.0553 47.6889 23.5247 45.6405 23.5247C43.0159 23.5247 40.9462 22.7992 39.4312 21.3483C37.9162 19.8973 37.1588 17.8916 37.1588 15.3311C37.1588 12.8132 37.9162 10.8288 39.4312 9.37786C40.9462 7.90557 42.9626 7.16942 45.4804 7.16942C47.8703 7.16942 49.812 7.85222 51.3056 9.21783C52.7992 10.5834 53.5461 12.3545 53.5461 14.5309ZM42.0237 13.6347H48.7131C48.6918 12.6105 48.4037 11.821 47.8489 11.2662C47.2941 10.7115 46.494 10.4341 45.4484 10.4341C44.4029 10.4341 43.5707 10.7328 42.9519 11.3303C42.3545 11.9064 42.0451 12.6745 42.0237 13.6347Z" fill="#272727"/>
<path d="M25.8117 23.0445V7.6174H30.7087V10.8501C30.9648 9.7405 31.4875 8.88699 32.277 8.28954C33.0879 7.67075 33.9841 7.36135 34.9656 7.36135C35.4777 7.36135 35.9044 7.40403 36.2458 7.48938V12.0343C35.6697 11.9703 35.179 11.9383 34.7735 11.9383C32.0637 11.9383 30.7087 13.656 30.7087 17.0913V23.0445H25.8117Z" fill="#272727"/>
<path d="M12.0344 23.6848C8.40703 23.6848 5.49444 22.5859 3.29667 20.3881C1.09889 18.169 0 15.3204 0 11.8424C0 8.36436 1.09889 5.52645 3.29667 3.32867C5.49444 1.10956 8.40703 0 12.0344 0C15.2778 0 17.913 0.800162 19.94 2.40048C21.9884 3.97947 23.162 6.10257 23.4607 8.76977H17.9556C17.6569 7.48951 16.9954 6.48664 15.9712 5.76116C14.947 5.01435 13.6454 4.64094 12.0664 4.64094C9.97535 4.64094 8.34302 5.29174 7.16945 6.59333C5.99588 7.87359 5.40909 9.62328 5.40909 11.8424C5.40909 14.0615 5.99588 15.8219 7.16945 17.1235C8.34302 18.4037 9.97535 19.0438 12.0664 19.0438C13.6454 19.0438 14.947 18.6811 15.9712 17.9556C16.9954 17.2088 17.6569 16.1953 17.9556 14.915H23.4607C23.162 17.5822 21.9884 19.716 19.94 21.3163C17.913 22.8953 15.2778 23.6848 12.0344 23.6848Z" fill="#272727"/>
</svg>
