<svg width="125" height="12" viewBox="0 0 125 12" fill="none" xmlns="http://www.w3.org/2000/svg">
<path d="M124.923 2.67375V3.87518H121.213V2.67375H124.923ZM122.132 1.1013H123.828V7.12609C123.828 7.31062 123.852 7.45196 123.899 7.55012C123.95 7.64827 124.024 7.71698 124.122 7.75624C124.221 7.79158 124.344 7.80925 124.494 7.80925C124.6 7.80925 124.694 7.80532 124.776 7.79747C124.863 7.78569 124.935 7.77391 124.994 7.76213L125 9.01067C124.855 9.05779 124.698 9.09509 124.529 9.12257C124.36 9.15005 124.174 9.16379 123.969 9.16379C123.596 9.16379 123.271 9.10294 122.992 8.98122C122.717 8.85559 122.505 8.65535 122.356 8.38051C122.206 8.10568 122.132 7.74447 122.132 7.29688V1.1013Z" fill="#1B3358"/>
<path d="M117.112 4.03419V9.04601H115.416V2.67375H117.006L117.112 4.03419ZM116.865 5.63609H116.405C116.405 5.16494 116.466 4.74091 116.588 4.36399C116.71 3.98315 116.88 3.65924 117.1 3.39225C117.32 3.12134 117.581 2.91522 117.883 2.77387C118.19 2.6286 118.531 2.55597 118.908 2.55597C119.207 2.55597 119.479 2.59916 119.727 2.68553C119.974 2.77191 120.186 2.90933 120.363 3.09779C120.543 3.28624 120.681 3.53556 120.775 3.84573C120.873 4.1559 120.922 4.53478 120.922 4.98237V9.04601H119.214V4.97648C119.214 4.69379 119.175 4.47393 119.097 4.31688C119.018 4.15983 118.902 4.04989 118.749 3.98707C118.6 3.92033 118.415 3.88696 118.196 3.88696C117.968 3.88696 117.77 3.93211 117.601 4.02241C117.436 4.11271 117.298 4.23835 117.189 4.39933C117.083 4.55638 117.002 4.74091 116.947 4.95292C116.892 5.16494 116.865 5.39266 116.865 5.63609Z" fill="#1B3358"/>
<path d="M112.87 7.52067V2.67375H114.566V9.04601H112.97L112.87 7.52067ZM113.058 6.21324L113.559 6.20146C113.559 6.62549 113.51 7.02008 113.411 7.38522C113.313 7.74643 113.166 8.06053 112.97 8.32751C112.773 8.59057 112.526 8.79669 112.228 8.94589C111.929 9.09116 111.578 9.16379 111.173 9.16379C110.863 9.16379 110.577 9.12061 110.314 9.03423C110.054 8.94393 109.831 8.80454 109.642 8.61609C109.458 8.4237 109.312 8.17831 109.206 7.87992C109.104 7.5776 109.053 7.21443 109.053 6.79039V2.67375H110.749V6.80217C110.749 6.99063 110.771 7.14964 110.814 7.27921C110.861 7.40877 110.926 7.51478 111.009 7.59723C111.091 7.67968 111.187 7.73858 111.297 7.77391C111.411 7.80925 111.537 7.82692 111.674 7.82692C112.023 7.82692 112.298 7.75624 112.499 7.6149C112.703 7.47356 112.846 7.28117 112.928 7.03775C113.015 6.79039 113.058 6.51556 113.058 6.21324Z" fill="#1B3358"/>
<path d="M102.431 5.92466V5.80099C102.431 5.33377 102.498 4.90385 102.632 4.51123C102.765 4.11468 102.96 3.77113 103.215 3.48059C103.47 3.19005 103.784 2.96429 104.157 2.80332C104.53 2.63842 104.958 2.55597 105.441 2.55597C105.924 2.55597 106.354 2.63842 106.731 2.80332C107.108 2.96429 107.424 3.19005 107.679 3.48059C107.938 3.77113 108.134 4.11468 108.268 4.51123C108.401 4.90385 108.468 5.33377 108.468 5.80099V5.92466C108.468 6.38796 108.401 6.81788 108.268 7.21443C108.134 7.60705 107.938 7.95059 107.679 8.24506C107.424 8.5356 107.11 8.76136 106.737 8.92233C106.364 9.08331 105.936 9.16379 105.453 9.16379C104.97 9.16379 104.54 9.08331 104.163 8.92233C103.79 8.76136 103.474 8.5356 103.215 8.24506C102.96 7.95059 102.765 7.60705 102.632 7.21443C102.498 6.81788 102.431 6.38796 102.431 5.92466ZM104.128 5.80099V5.92466C104.128 6.19165 104.151 6.44096 104.198 6.67261C104.245 6.90426 104.32 7.10842 104.422 7.2851C104.528 7.45785 104.666 7.59331 104.834 7.69146C105.003 7.78962 105.209 7.8387 105.453 7.8387C105.688 7.8387 105.89 7.78962 106.059 7.69146C106.228 7.59331 106.364 7.45785 106.466 7.2851C106.568 7.10842 106.642 6.90426 106.689 6.67261C106.741 6.44096 106.766 6.19165 106.766 5.92466V5.80099C106.766 5.54186 106.741 5.29843 106.689 5.07071C106.642 4.83906 106.566 4.6349 106.46 4.45822C106.358 4.27762 106.222 4.13627 106.053 4.03419C105.885 3.93211 105.68 3.88107 105.441 3.88107C105.201 3.88107 104.997 3.93211 104.828 4.03419C104.664 4.13627 104.528 4.27762 104.422 4.45822C104.32 4.6349 104.245 4.83906 104.198 5.07071C104.151 5.29843 104.128 5.54186 104.128 5.80099Z" fill="#1B3358"/>
<path d="M99.4552 7.8387C99.6633 7.8387 99.8478 7.79943 100.009 7.72091C100.17 7.63846 100.295 7.5246 100.386 7.37933C100.48 7.23013 100.529 7.05541 100.533 6.85518H102.129C102.125 7.30277 102.005 7.70128 101.77 8.05071C101.534 8.39622 101.218 8.66909 100.821 8.86933C100.425 9.06564 99.9813 9.16379 99.4905 9.16379C98.9958 9.16379 98.5639 9.08134 98.1948 8.91644C97.8297 8.75154 97.5254 8.52382 97.282 8.23328C97.0386 7.93881 96.856 7.59723 96.7343 7.20854C96.6126 6.81592 96.5517 6.39581 96.5517 5.94822V5.77743C96.5517 5.32592 96.6126 4.90581 96.7343 4.51711C96.856 4.12449 97.0386 3.78291 97.282 3.49237C97.5254 3.1979 97.8297 2.96822 98.1948 2.80332C98.56 2.63842 98.9879 2.55597 99.4787 2.55597C100.001 2.55597 100.458 2.65609 100.851 2.85632C101.247 3.05656 101.558 3.34318 101.781 3.71617C102.009 4.08523 102.125 4.523 102.129 5.02949H100.533C100.529 4.81747 100.484 4.62509 100.397 4.45233C100.315 4.27958 100.193 4.14216 100.032 4.04008C99.8753 3.93407 99.6809 3.88107 99.4493 3.88107C99.2019 3.88107 98.9997 3.93407 98.8427 4.04008C98.6856 4.14216 98.5639 4.2835 98.4775 4.46411C98.3912 4.64079 98.3303 4.84299 98.295 5.07071C98.2636 5.29451 98.2479 5.53008 98.2479 5.77743V5.94822C98.2479 6.19557 98.2636 6.43311 98.295 6.66083C98.3264 6.88855 98.3853 7.09075 98.4716 7.26743C98.5619 7.44411 98.6856 7.58349 98.8427 7.68557C98.9997 7.78765 99.2039 7.8387 99.4552 7.8387Z" fill="#1B3358"/>
<path d="M93.5755 7.8387C93.7836 7.8387 93.9682 7.79943 94.1291 7.72091C94.2901 7.63846 94.4157 7.5246 94.506 7.37933C94.6003 7.23013 94.6493 7.05541 94.6533 6.85518H96.2493C96.2454 7.30277 96.1256 7.70128 95.89 8.05071C95.6545 8.39622 95.3384 8.66909 94.9419 8.86933C94.5453 9.06564 94.1016 9.16379 93.6109 9.16379C93.1162 9.16379 92.6843 9.08134 92.3152 8.91644C91.9501 8.75154 91.6458 8.52382 91.4024 8.23328C91.1589 7.93881 90.9764 7.59723 90.8547 7.20854C90.7329 6.81592 90.6721 6.39581 90.6721 5.94822V5.77743C90.6721 5.32592 90.7329 4.90581 90.8547 4.51711C90.9764 4.12449 91.1589 3.78291 91.4024 3.49237C91.6458 3.1979 91.9501 2.96822 92.3152 2.80332C92.6804 2.63842 93.1083 2.55597 93.5991 2.55597C94.1213 2.55597 94.5787 2.65609 94.9713 2.85632C95.3678 3.05656 95.678 3.34318 95.9018 3.71617C96.1295 4.08523 96.2454 4.523 96.2493 5.02949H94.6533C94.6493 4.81747 94.6042 4.62509 94.5178 4.45233C94.4354 4.27958 94.3137 4.14216 94.1527 4.04008C93.9956 3.93407 93.8013 3.88107 93.5696 3.88107C93.3223 3.88107 93.1201 3.93407 92.963 4.04008C92.806 4.14216 92.6843 4.2835 92.5979 4.46411C92.5115 4.64079 92.4507 4.84299 92.4153 5.07071C92.3839 5.29451 92.3682 5.53008 92.3682 5.77743V5.94822C92.3682 6.19557 92.3839 6.43311 92.4153 6.66083C92.4467 6.88855 92.5056 7.09075 92.592 7.26743C92.6823 7.44411 92.806 7.58349 92.963 7.68557C93.1201 7.78765 93.3243 7.8387 93.5755 7.8387Z" fill="#1B3358"/>
<path d="M88.3377 7.60901V4.77036C88.3377 4.56619 88.3043 4.39148 88.2376 4.24621C88.1708 4.09701 88.0668 3.98119 87.9255 3.89873C87.788 3.81628 87.6094 3.77506 87.3895 3.77506C87.2011 3.77506 87.0381 3.80843 86.9007 3.87518C86.7633 3.938 86.6573 4.03026 86.5827 4.15198C86.5081 4.26976 86.4708 4.40914 86.4708 4.57012H84.7747C84.7747 4.29921 84.8375 4.04204 84.9631 3.79862C85.0888 3.55519 85.2713 3.34121 85.5108 3.15668C85.7503 2.96822 86.035 2.82099 86.3648 2.71498C86.6985 2.60897 87.0715 2.55597 87.4838 2.55597C87.9785 2.55597 88.4182 2.63842 88.803 2.80332C89.1877 2.96822 89.4901 3.21557 89.7099 3.54538C89.9337 3.87518 90.0456 4.28743 90.0456 4.78213V7.50889C90.0456 7.85833 90.0672 8.14494 90.1104 8.36873C90.1536 8.5886 90.2164 8.78099 90.2989 8.94589V9.04601H88.5851C88.5026 8.87325 88.4398 8.65731 88.3966 8.39818C88.3573 8.13512 88.3377 7.87207 88.3377 7.60901ZM88.5615 5.16494L88.5733 6.1249H87.6251C87.4013 6.1249 87.207 6.15042 87.0421 6.20146C86.8772 6.2525 86.7417 6.32514 86.6357 6.41937C86.5297 6.50967 86.4512 6.61568 86.4001 6.73739C86.353 6.8591 86.3294 6.9926 86.3294 7.13787C86.3294 7.28314 86.3628 7.41466 86.4296 7.53245C86.4963 7.64631 86.5925 7.73661 86.7181 7.80336C86.8438 7.86618 86.991 7.89759 87.1598 7.89759C87.415 7.89759 87.6369 7.84655 87.8253 7.74447C88.0138 7.64238 88.1591 7.51675 88.2611 7.36755C88.3672 7.21835 88.4221 7.07701 88.426 6.94352L88.8736 7.66202C88.8108 7.82299 88.7244 7.98985 88.6145 8.16261C88.5085 8.33536 88.373 8.4983 88.2081 8.65142C88.0432 8.80062 87.845 8.92429 87.6133 9.02245C87.3817 9.11668 87.1068 9.16379 86.7888 9.16379C86.3844 9.16379 86.0173 9.08331 85.6875 8.92233C85.3616 8.75743 85.1025 8.53167 84.9101 8.24506C84.7217 7.95452 84.6274 7.62472 84.6274 7.25565C84.6274 6.92192 84.6903 6.62549 84.8159 6.36636C84.9415 6.10723 85.1261 5.88933 85.3695 5.71265C85.6168 5.53204 85.925 5.39659 86.2941 5.30628C86.6632 5.21206 87.0911 5.16494 87.578 5.16494H88.5615Z" fill="#1B3358"/>
<path d="M77.3086 4.03419V9.04601H76.2191V2.67375H77.2497L77.3086 4.03419ZM77.0495 5.61842L76.596 5.60075C76.5999 5.16494 76.6647 4.7625 76.7903 4.39344C76.916 4.02045 77.0926 3.69653 77.3204 3.4217C77.5481 3.14686 77.819 2.93485 78.1331 2.78565C78.4511 2.63253 78.8025 2.55597 79.1873 2.55597C79.5014 2.55597 79.7841 2.59916 80.0354 2.68553C80.2866 2.76798 80.5006 2.90148 80.6773 3.08601C80.8579 3.27054 80.9953 3.51004 81.0895 3.80451C81.1838 4.09505 81.2309 4.45037 81.2309 4.87047V9.04601H80.1355V4.8587C80.1355 4.52497 80.0864 4.25798 79.9882 4.05775C79.8901 3.85358 79.7468 3.70635 79.5583 3.61605C79.3699 3.52182 79.1382 3.4747 78.8634 3.4747C78.5925 3.4747 78.3451 3.53163 78.1213 3.64549C77.9015 3.75935 77.711 3.9164 77.5501 4.11664C77.393 4.31688 77.2693 4.54656 77.179 4.80569C77.0926 5.0609 77.0495 5.3318 77.0495 5.61842Z" fill="#1B3358"/>
<path d="M73.8258 7.95648V4.67613C73.8258 4.42485 73.7747 4.20694 73.6727 4.02241C73.5745 3.83395 73.4253 3.68868 73.2251 3.5866C73.0248 3.48452 72.7775 3.43348 72.483 3.43348C72.2082 3.43348 71.9667 3.48059 71.7586 3.57482C71.5545 3.66905 71.3935 3.79273 71.2757 3.94585C71.1619 4.09897 71.1049 4.26387 71.1049 4.44055H70.0154C70.0154 4.21283 70.0743 3.98707 70.1921 3.76328C70.3099 3.53949 70.4787 3.33729 70.6986 3.15668C70.9224 2.97215 71.1893 2.82688 71.4995 2.72087C71.8136 2.61094 72.163 2.55597 72.5478 2.55597C73.0111 2.55597 73.4194 2.63449 73.7728 2.79154C74.1301 2.94859 74.4088 3.18613 74.6091 3.50415C74.8132 3.81825 74.9153 4.21283 74.9153 4.6879V7.65613C74.9153 7.86814 74.933 8.0939 74.9683 8.3334C75.0076 8.5729 75.0645 8.77902 75.1391 8.95178V9.04601H74.0025C73.9475 8.92037 73.9043 8.7535 73.8729 8.54541C73.8415 8.3334 73.8258 8.13709 73.8258 7.95648ZM74.0142 5.18261L74.026 5.94822H72.9247C72.6146 5.94822 72.3378 5.97374 72.0943 6.02478C71.8509 6.0719 71.6467 6.14453 71.4818 6.24269C71.3169 6.34084 71.1913 6.46452 71.1049 6.61372C71.0185 6.75899 70.9754 6.92978 70.9754 7.12609C70.9754 7.32632 71.0205 7.50889 71.1108 7.67379C71.2011 7.8387 71.3366 7.97022 71.5172 8.06838C71.7017 8.16261 71.9275 8.20972 72.1944 8.20972C72.5282 8.20972 72.8226 8.13905 73.0778 7.99771C73.3331 7.85636 73.5353 7.68361 73.6844 7.47945C73.8376 7.27528 73.92 7.07701 73.9318 6.88462L74.3971 7.40877C74.3696 7.57368 74.295 7.75624 74.1733 7.95648C74.0515 8.15672 73.8886 8.3491 73.6844 8.53364C73.4842 8.71424 73.2447 8.8654 72.9659 8.98711C72.6911 9.1049 72.3809 9.16379 72.0354 9.16379C71.6036 9.16379 71.2247 9.07938 70.8988 8.91055C70.5768 8.74173 70.3256 8.51597 70.145 8.23328C69.9683 7.94667 69.8799 7.62668 69.8799 7.27332C69.8799 6.93174 69.9467 6.63138 70.0802 6.37225C70.2137 6.1092 70.4061 5.89129 70.6573 5.71854C70.9086 5.54186 71.2109 5.40837 71.5643 5.31806C71.9176 5.22776 72.3122 5.18261 72.748 5.18261H74.0142Z" fill="#1B3358"/>
<path d="M64.1453 9.16379C63.7017 9.16379 63.2992 9.0892 62.938 8.94C62.5807 8.78688 62.2725 8.5729 62.0134 8.29806C61.7582 8.02323 61.5619 7.69735 61.4245 7.32043C61.287 6.94352 61.2183 6.53126 61.2183 6.08368V5.83632C61.2183 5.31806 61.2949 4.85673 61.448 4.45233C61.6011 4.04401 61.8092 3.6985 62.0723 3.41581C62.3353 3.13312 62.6337 2.91914 62.9675 2.77387C63.3012 2.6286 63.6467 2.55597 64.004 2.55597C64.4594 2.55597 64.852 2.63449 65.1818 2.79154C65.5156 2.94859 65.7884 3.16846 66.0005 3.45115C66.2125 3.72991 66.3695 4.05971 66.4716 4.44055C66.5737 4.81747 66.6247 5.22972 66.6247 5.67731V6.16613H61.8662V5.27684H65.5352V5.19439C65.5195 4.9117 65.4606 4.63686 65.3585 4.36988C65.2604 4.1029 65.1033 3.88303 64.8874 3.71028C64.6714 3.53752 64.377 3.45115 64.004 3.45115C63.7566 3.45115 63.5289 3.50415 63.3208 3.61016C63.1127 3.71224 62.9341 3.86536 62.7849 4.06953C62.6357 4.27369 62.5199 4.523 62.4374 4.81747C62.355 5.11194 62.3138 5.45155 62.3138 5.83632V6.08368C62.3138 6.38599 62.355 6.67065 62.4374 6.93763C62.5238 7.20068 62.6475 7.43233 62.8085 7.63257C62.9734 7.83281 63.1716 7.98985 63.4033 8.10371C63.6388 8.21758 63.9058 8.27451 64.2042 8.27451C64.589 8.27451 64.9149 8.19598 65.1818 8.03893C65.4488 7.88188 65.6824 7.67183 65.8827 7.40877L66.5423 7.93292C66.4049 8.14101 66.2301 8.33929 66.0181 8.52775C65.8061 8.71621 65.545 8.86933 65.2349 8.98711C64.9286 9.1049 64.5654 9.16379 64.1453 9.16379Z" fill="#1B3358"/>
<path d="M58.0889 8.06249L59.8321 2.67375H60.9452L58.6543 9.04601H57.924L58.0889 8.06249ZM56.6342 2.67375L58.4305 8.09194L58.5542 9.04601H57.8239L55.5153 2.67375H56.6342Z" fill="#1B3358"/>
<path d="M53.8523 7.95648V4.67613C53.8523 4.42485 53.8012 4.20694 53.6991 4.02241C53.601 3.83395 53.4518 3.68868 53.2515 3.5866C53.0513 3.48452 52.804 3.43348 52.5095 3.43348C52.2347 3.43348 51.9932 3.48059 51.7851 3.57482C51.5809 3.66905 51.42 3.79273 51.3022 3.94585C51.1883 4.09897 51.1314 4.26387 51.1314 4.44055H50.0419C50.0419 4.21283 50.1008 3.98707 50.2185 3.76328C50.3363 3.53949 50.5052 3.33729 50.725 3.15668C50.9488 2.97215 51.2158 2.82688 51.526 2.72087C51.8401 2.61094 52.1895 2.55597 52.5743 2.55597C53.0376 2.55597 53.4459 2.63449 53.7993 2.79154C54.1565 2.94859 54.4353 3.18613 54.6355 3.50415C54.8397 3.81825 54.9418 4.21283 54.9418 4.6879V7.65613C54.9418 7.86814 54.9595 8.0939 54.9948 8.3334C55.0341 8.5729 55.091 8.77902 55.1656 8.95178V9.04601H54.0289C53.974 8.92037 53.9308 8.7535 53.8994 8.54541C53.868 8.3334 53.8523 8.13709 53.8523 7.95648ZM54.0407 5.18261L54.0525 5.94822H52.9512C52.641 5.94822 52.3642 5.97374 52.1208 6.02478C51.8774 6.0719 51.6732 6.14453 51.5083 6.24269C51.3434 6.34084 51.2178 6.46452 51.1314 6.61372C51.045 6.75899 51.0018 6.92978 51.0018 7.12609C51.0018 7.32632 51.047 7.50889 51.1373 7.67379C51.2276 7.8387 51.363 7.97022 51.5436 8.06838C51.7282 8.16261 51.9539 8.20972 52.2209 8.20972C52.5546 8.20972 52.8491 8.13905 53.1043 7.99771C53.3595 7.85636 53.5617 7.68361 53.7109 7.47945C53.864 7.27528 53.9465 7.07701 53.9583 6.88462L54.4235 7.40877C54.396 7.57368 54.3214 7.75624 54.1997 7.95648C54.078 8.15672 53.9151 8.3491 53.7109 8.53364C53.5107 8.71424 53.2712 8.8654 52.9924 8.98711C52.7176 9.1049 52.4074 9.16379 52.0619 9.16379C51.63 9.16379 51.2511 9.07938 50.9253 8.91055C50.6033 8.74173 50.352 8.51597 50.1714 8.23328C49.9947 7.94667 49.9064 7.62668 49.9064 7.27332C49.9064 6.93174 49.9732 6.63138 50.1066 6.37225C50.2401 6.1092 50.4325 5.89129 50.6838 5.71854C50.9351 5.54186 51.2374 5.40837 51.5908 5.31806C51.9441 5.22776 52.3387 5.18261 52.7745 5.18261H54.0407Z" fill="#1B3358"/>
<path d="M44.9514 0V9.04601H43.8619V0H44.9514ZM44.6923 5.61842L44.2388 5.60075C44.2427 5.16494 44.3075 4.7625 44.4331 4.39344C44.5588 4.02045 44.7355 3.69653 44.9632 3.4217C45.1909 3.14686 45.4618 2.93485 45.7759 2.78565C46.0939 2.63253 46.4453 2.55597 46.8301 2.55597C47.1442 2.55597 47.4269 2.59916 47.6782 2.68553C47.9294 2.76798 48.1434 2.90148 48.3201 3.08601C48.5007 3.27054 48.6381 3.51004 48.7323 3.80451C48.8266 4.09505 48.8737 4.45037 48.8737 4.87047V9.04601H47.7783V4.8587C47.7783 4.52497 47.7292 4.25798 47.631 4.05775C47.5329 3.85358 47.3896 3.70635 47.2011 3.61605C47.0127 3.52182 46.781 3.4747 46.5062 3.4747C46.2353 3.4747 45.9879 3.53163 45.7641 3.64549C45.5443 3.75935 45.3538 3.9164 45.1929 4.11664C45.0358 4.31688 44.9121 4.54656 44.8218 4.80569C44.7355 5.0609 44.6923 5.3318 44.6923 5.61842Z" fill="#1B3358"/>
<path d="M37.7679 8.3864L39.5406 2.67375H40.7067L38.1507 10.0295C38.0918 10.1866 38.0133 10.3554 37.9151 10.536C37.8209 10.7205 37.6992 10.8953 37.55 11.0602C37.4008 11.2251 37.2202 11.3586 37.0082 11.4606C36.8001 11.5666 36.5508 11.6196 36.2602 11.6196C36.1738 11.6196 36.0639 11.6079 35.9304 11.5843C35.7969 11.5608 35.7027 11.5411 35.6477 11.5254L35.6418 10.642C35.6733 10.6459 35.7223 10.6499 35.7891 10.6538C35.8597 10.6616 35.9088 10.6656 35.9363 10.6656C36.1837 10.6656 36.3937 10.6322 36.5665 10.5655C36.7392 10.5026 36.8845 10.3947 37.0023 10.2415C37.124 10.0923 37.228 9.88622 37.3144 9.62316L37.7679 8.3864ZM36.4663 2.67375L38.1213 7.62079L38.4039 8.76921L37.6207 9.16968L35.2767 2.67375H36.4663Z" fill="#1B3358"/>
<path d="M33.5962 7.80925V0H34.6916V9.04601H33.6904L33.5962 7.80925ZM29.3087 5.93055V5.80688C29.3087 5.32003 29.3676 4.87833 29.4854 4.48178C29.6071 4.0813 29.7779 3.73776 29.9978 3.45115C30.2216 3.16453 30.4866 2.94466 30.7928 2.79154C31.103 2.63449 31.4485 2.55597 31.8294 2.55597C32.2298 2.55597 32.5793 2.62664 32.8777 2.76798C33.18 2.9054 33.4352 3.1076 33.6433 3.37458C33.8553 3.63764 34.0222 3.95567 34.1439 4.32866C34.2656 4.70165 34.35 5.12372 34.3971 5.59486V6.13668C34.3539 6.6039 34.2695 7.024 34.1439 7.397C34.0222 7.76999 33.8553 8.08801 33.6433 8.35107C33.4352 8.61412 33.18 8.81632 32.8777 8.95767C32.5753 9.09509 32.222 9.16379 31.8176 9.16379C31.4446 9.16379 31.103 9.08331 30.7928 8.92233C30.4866 8.76136 30.2216 8.5356 29.9978 8.24506C29.7779 7.95452 29.6071 7.61294 29.4854 7.22032C29.3676 6.82377 29.3087 6.39385 29.3087 5.93055ZM30.4041 5.80688V5.93055C30.4041 6.24858 30.4356 6.54697 30.4984 6.82573C30.5651 7.10449 30.6672 7.34988 30.8046 7.5619C30.942 7.77391 31.1168 7.94078 31.3288 8.06249C31.5408 8.18028 31.794 8.23917 32.0885 8.23917C32.4497 8.23917 32.7461 8.16261 32.9778 8.00949C33.2134 7.85636 33.4018 7.65416 33.5432 7.40288C33.6845 7.15161 33.7944 6.87873 33.873 6.58427V5.16494C33.8258 4.949 33.7571 4.74091 33.6668 4.54067C33.5805 4.33651 33.4666 4.1559 33.3253 3.99885C33.1878 3.83788 33.017 3.71028 32.8129 3.61605C32.6126 3.52182 32.3751 3.4747 32.1003 3.4747C31.8019 3.4747 31.5447 3.53752 31.3288 3.66316C31.1168 3.78487 30.942 3.9537 30.8046 4.16964C30.6672 4.38166 30.5651 4.62901 30.4984 4.9117C30.4356 5.19046 30.4041 5.48885 30.4041 5.80688Z" fill="#1B3358"/>
<path d="M27.1864 7.95648V4.67613C27.1864 4.42485 27.1353 4.20694 27.0332 4.02241C26.9351 3.83395 26.7859 3.68868 26.5857 3.5866C26.3854 3.48452 26.1381 3.43348 25.8436 3.43348C25.5688 3.43348 25.3273 3.48059 25.1192 3.57482C24.915 3.66905 24.7541 3.79273 24.6363 3.94585C24.5224 4.09897 24.4655 4.26387 24.4655 4.44055H23.376C23.376 4.21283 23.4349 3.98707 23.5526 3.76328C23.6704 3.53949 23.8393 3.33729 24.0591 3.15668C24.2829 2.97215 24.5499 2.82688 24.8601 2.72087C25.1742 2.61094 25.5236 2.55597 25.9084 2.55597C26.3717 2.55597 26.78 2.63449 27.1334 2.79154C27.4906 2.94859 27.7694 3.18613 27.9696 3.50415C28.1738 3.81825 28.2759 4.21283 28.2759 4.6879V7.65613C28.2759 7.86814 28.2936 8.0939 28.3289 8.3334C28.3682 8.5729 28.4251 8.77902 28.4997 8.95178V9.04601H27.363C27.3081 8.92037 27.2649 8.7535 27.2335 8.54541C27.2021 8.3334 27.1864 8.13709 27.1864 7.95648ZM27.3748 5.18261L27.3866 5.94822H26.2853C25.9751 5.94822 25.6983 5.97374 25.4549 6.02478C25.2115 6.0719 25.0073 6.14453 24.8424 6.24269C24.6775 6.34084 24.5519 6.46452 24.4655 6.61372C24.3791 6.75899 24.3359 6.92978 24.3359 7.12609C24.3359 7.32632 24.3811 7.50889 24.4714 7.67379C24.5617 7.8387 24.6971 7.97022 24.8777 8.06838C25.0623 8.16261 25.288 8.20972 25.555 8.20972C25.8887 8.20972 26.1832 8.13905 26.4384 7.99771C26.6936 7.85636 26.8958 7.68361 27.045 7.47945C27.1981 7.27528 27.2806 7.07701 27.2924 6.88462L27.7576 7.40877C27.7301 7.57368 27.6555 7.75624 27.5338 7.95648C27.4121 8.15672 27.2492 8.3491 27.045 8.53364C26.8448 8.71424 26.6053 8.8654 26.3265 8.98711C26.0517 9.1049 25.7415 9.16379 25.396 9.16379C24.9641 9.16379 24.5852 9.07938 24.2594 8.91055C23.9374 8.74173 23.6861 8.51597 23.5055 8.23328C23.3289 7.94667 23.2405 7.62668 23.2405 7.27332C23.2405 6.93174 23.3073 6.63138 23.4408 6.37225C23.5742 6.1092 23.7666 5.89129 24.0179 5.71854C24.2692 5.54186 24.5715 5.40837 24.9249 5.31806C25.2782 5.22776 25.6728 5.18261 26.1086 5.18261H27.3748Z" fill="#1B3358"/>
<path d="M20.0875 9.16379C19.6439 9.16379 19.2414 9.0892 18.8802 8.94C18.5229 8.78688 18.2147 8.5729 17.9556 8.29806C17.7004 8.02323 17.5041 7.69735 17.3666 7.32043C17.2292 6.94352 17.1605 6.53126 17.1605 6.08368V5.83632C17.1605 5.31806 17.2371 4.85673 17.3902 4.45233C17.5433 4.04401 17.7514 3.6985 18.0145 3.41581C18.2775 3.13312 18.5759 2.91914 18.9096 2.77387C19.2434 2.6286 19.5889 2.55597 19.9462 2.55597C20.4016 2.55597 20.7942 2.63449 21.124 2.79154C21.4578 2.94859 21.7306 3.16846 21.9427 3.45115C22.1547 3.72991 22.3117 4.05971 22.4138 4.44055C22.5159 4.81747 22.5669 5.22972 22.5669 5.67731V6.16613H17.8083V5.27684H21.4774V5.19439C21.4617 4.9117 21.4028 4.63686 21.3007 4.36988C21.2026 4.1029 21.0455 3.88303 20.8296 3.71028C20.6136 3.53752 20.3192 3.45115 19.9462 3.45115C19.6988 3.45115 19.4711 3.50415 19.263 3.61016C19.0549 3.71224 18.8763 3.86536 18.7271 4.06953C18.5779 4.27369 18.4621 4.523 18.3796 4.81747C18.2972 5.11194 18.2559 5.45155 18.2559 5.83632V6.08368C18.2559 6.38599 18.2972 6.67065 18.3796 6.93763C18.466 7.20068 18.5897 7.43233 18.7506 7.63257C18.9155 7.83281 19.1138 7.98985 19.3455 8.10371C19.581 8.21758 19.848 8.27451 20.1464 8.27451C20.5312 8.27451 20.8571 8.19598 21.124 8.03893C21.391 7.88188 21.6246 7.67183 21.8249 7.40877L22.4845 7.93292C22.3471 8.14101 22.1723 8.33929 21.9603 8.52775C21.7483 8.71621 21.4872 8.86933 21.177 8.98711C20.8708 9.1049 20.5076 9.16379 20.0875 9.16379Z" fill="#1B3358"/>
<path d="M14.9735 3.67494V9.04601H13.884V2.67375H14.944L14.9735 3.67494ZM16.9641 2.63842L16.9582 3.65138C16.8679 3.63175 16.7815 3.61997 16.6991 3.61605C16.6205 3.60819 16.5302 3.60427 16.4282 3.60427C16.1769 3.60427 15.955 3.64353 15.7627 3.72206C15.5703 3.80058 15.4073 3.91051 15.2738 4.05186C15.1404 4.1932 15.0343 4.36203 14.9558 4.55834C14.8812 4.75072 14.8321 4.96274 14.8086 5.19439L14.5023 5.37107C14.5023 4.9863 14.5396 4.62509 14.6142 4.28743C14.6928 3.94978 14.8125 3.65138 14.9735 3.39225C15.1345 3.1292 15.3386 2.92503 15.586 2.77976C15.8373 2.63057 16.1357 2.55597 16.4812 2.55597C16.5597 2.55597 16.65 2.56578 16.7521 2.58541C16.8542 2.60112 16.9248 2.61879 16.9641 2.63842Z" fill="#1B3358"/>
<path d="M12.5449 0V9.04601H11.4495V0H12.5449Z" fill="#1B3358"/>
<path d="M8.96785 7.95648V4.67613C8.96785 4.42485 8.91681 4.20694 8.81473 4.02241C8.71657 3.83395 8.56738 3.68868 8.36714 3.5866C8.1669 3.48452 7.91955 3.43348 7.62508 3.43348C7.35025 3.43348 7.10879 3.48059 6.9007 3.57482C6.69653 3.66905 6.53556 3.79273 6.41777 3.94585C6.30391 4.09897 6.24698 4.26387 6.24698 4.44055H5.15746C5.15746 4.21283 5.21635 3.98707 5.33414 3.76328C5.45192 3.53949 5.62075 3.33729 5.84062 3.15668C6.06441 2.97215 6.3314 2.82688 6.64157 2.72087C6.95566 2.61094 7.3051 2.55597 7.68987 2.55597C8.15316 2.55597 8.56149 2.63449 8.91485 2.79154C9.27213 2.94859 9.55089 3.18613 9.75113 3.50415C9.9553 3.81825 10.0574 4.21283 10.0574 4.6879V7.65613C10.0574 7.86814 10.075 8.0939 10.1104 8.3334C10.1496 8.5729 10.2066 8.77902 10.2812 8.95178V9.04601H9.14453C9.08956 8.92037 9.04638 8.7535 9.01497 8.54541C8.98356 8.3334 8.96785 8.13709 8.96785 7.95648ZM9.15631 5.18261L9.16809 5.94822H8.06678C7.75661 5.94822 7.47981 5.97374 7.23639 6.02478C6.99296 6.0719 6.7888 6.14453 6.6239 6.24269C6.459 6.34084 6.33336 6.46452 6.24698 6.61372C6.1606 6.75899 6.11742 6.92978 6.11742 7.12609C6.11742 7.32632 6.16257 7.50889 6.25287 7.67379C6.34317 7.8387 6.47863 7.97022 6.65923 8.06838C6.84377 8.16261 7.06952 8.20972 7.33651 8.20972C7.67024 8.20972 7.9647 8.13905 8.21991 7.99771C8.47511 7.85636 8.67731 7.68361 8.82651 7.47945C8.97963 7.27528 9.06208 7.07701 9.07386 6.88462L9.53912 7.40877C9.51163 7.57368 9.43703 7.75624 9.31532 7.95648C9.19361 8.15672 9.03067 8.3491 8.82651 8.53364C8.62627 8.71424 8.38677 8.8654 8.10801 8.98711C7.83317 9.1049 7.523 9.16379 7.1775 9.16379C6.74561 9.16379 6.36673 9.07938 6.04086 8.91055C5.71891 8.74173 5.46763 8.51597 5.28702 8.23328C5.11034 7.94667 5.022 7.62668 5.022 7.27332C5.022 6.93174 5.08875 6.63138 5.22224 6.37225C5.35573 6.1092 5.54811 5.89129 5.79939 5.71854C6.05067 5.54186 6.35299 5.40837 6.70635 5.31806C7.05971 5.22776 7.45429 5.18261 7.8901 5.18261H9.15631Z" fill="#1B3358"/>
<path d="M1.13664 0.471146V9.04601H0V0.471146H1.13664Z" fill="#1B3358"/>
</svg>
